<svg xmlns="http://www.w3.org/2000/svg" width="1200" height="900" viewBox="0 0 1200 900" font-family="Inter, Arial, Helvetica, sans-serif"><style>text{stroke:none}.o{fill:none;stroke:#0F2344;stroke-width:1.5;stroke-linejoin:round}.w{fill:#FBFBF9;stroke:#0F2344;stroke-width:1.2;stroke-linejoin:round}.w2{fill:#E7E7E3;stroke:#0F2344;stroke-width:1.1;stroke-linejoin:round}.w3{fill:#D6D6D2;stroke:#0F2344;stroke-width:1}.fr{fill:#fff;stroke:#0F2344;stroke-width:.9}.gl{fill:#CFD8E4;stroke:#0F2344;stroke-width:.6}.gl2{fill:#DCE3EC;fill-opacity:.55;stroke:#0F2344;stroke-width:.8}.mu{fill:none;stroke:#0F2344;stroke-width:.8}.rf{fill:none;stroke:#fff;stroke-width:1.4;stroke-linecap:round}.pt{fill:#fff;stroke:#0F2344;stroke-width:.7}.th{fill:none;stroke:#4A4A4A;stroke-width:.5}.tn{fill:none;stroke:#0F2344;stroke-width:.8}.sh{fill:#0F2344;fill-opacity:.1}.dk{fill:#3A4150;stroke:#0F2344;stroke-width:.9}.md{fill:url(#mad);stroke:#0F2344;stroke-width:.9}.mt{fill:url(#met);stroke:#0F2344;stroke-width:1}.tl{fill:url(#telha);stroke:#0F2344;stroke-width:1.1;stroke-linejoin:round}.trs{fill:none;stroke:#8C929C;stroke-width:1.6}.trf{fill:#F4F4F2}.trk{fill:none;stroke:#8C929C;stroke-width:.9}.nw{fill:url(#hn);stroke:#0F2344;stroke-width:1.4;stroke-dasharray:8 4}.nd{fill:none;stroke:#0F2344;stroke-width:1;stroke-dasharray:6 3}.gx{fill:#FAFAF8;stroke:#4A4A4A;stroke-width:1.2}</style><defs><pattern id="terra" width="7" height="7" patternUnits="userSpaceOnUse" patternTransform="rotate(45)"><path d="M0 0V7" stroke="#4A4A4A" stroke-width=".7"/></pattern></defs><rect width="1200" height="900" fill="#F4F4F2"/><rect x="504" y="62" width="174" height="75.4" class="w2"/><line x1="504" y1="70.7" x2="678" y2="70.7" class="tn"/><path d="M521.4 115.4H660.6M521.4 107.8H660.6M521.4 100.3H660.6M521.4 92.7H660.6" class="th"/><rect x="330" y="137.4" width="522" height="562.6" class="w"/><line x1="330" y1="146.1" x2="852" y2="146.1" class="tn"/><rect x="324.2" y="137.4" width="16" height="562.6" class="w2"/><rect x="841.9" y="137.4" width="16" height="562.6" class="w2"/><rect x="353.2" y="621.7" width="127.6" height="78.3" class="dk"/><rect x="515.6" y="615.9" width="150.8" height="84.1" class="fr"/><rect x="517.3" y="617.6" width="147.3" height="80.6" class="gl"/><path d="M553.3 617.6V698.3M591 617.6V698.3M628.7 617.6V698.3" class="mu"/><path d="M537.5 624.3l-11.3 11.3M543.5 624.3l-6.8 6.8M575.2 624.3l-11.3 11.3M581.2 624.3l-6.8 6.8M612.9 624.3l-11.3 11.3M618.9 624.3l-6.8 6.8M650.6 624.3l-11.3 11.3M656.6 624.3l-6.8 6.8" class="rf"/><rect x="701.2" y="624.6" width="118.9" height="49.3" class="fr"/><rect x="702.9" y="626.3" width="115.4" height="45.8" class="gl"/><path d="M740.8 626.3V672.2M780.5 626.3V672.2" class="mu"/><path d="M724.2 629.5l-11.9 11.9M730.2 629.5l-7.1 7.1M763.8 629.5l-11.9 11.9M769.8 629.5l-7.1 7.1M803.5 629.5l-11.9 11.9M809.5 629.5l-7.1 7.1" class="rf"/><rect x="699.5" y="673.9" width="122.4" height="2" class="pt"/><rect x="340.2" y="607.2" width="501.7" height="5.8" class="w2"/><rect x="361.9" y="540.5" width="110.2" height="37.7" class="fr"/><rect x="363.6" y="542.2" width="106.7" height="34.2" class="gl"/><path d="M398.6 542.2V576.5M435.4 542.2V576.5" class="mu"/><path d="M383.2 544.3l-11 11M389.2 544.3l-6.6 6.6M419.9 544.3l-11 11M425.9 544.3l-6.6 6.6M456.7 544.3l-11 11M462.7 544.3l-6.6 6.6" class="rf"/><rect x="360.2" y="578.2" width="113.7" height="2" class="pt"/><rect x="709.9" y="540.5" width="110.2" height="37.7" class="fr"/><rect x="711.6" y="542.2" width="106.7" height="34.2" class="gl"/><path d="M746.6 542.2V576.5M783.4 542.2V576.5" class="mu"/><path d="M731.2 544.3l-11 11M737.2 544.3l-6.6 6.6M767.9 544.3l-11 11M773.9 544.3l-6.6 6.6M804.7 544.3l-11 11M810.7 544.3l-6.6 6.6" class="rf"/><rect x="708.2" y="578.2" width="113.7" height="2" class="pt"/><rect x="533" y="537.6" width="116" height="68.1" class="fr"/><rect x="534.7" y="539.3" width="112.5" height="64.7" class="gl"/><path d="M562 539.3V604M591 539.3V604M620 539.3V604" class="mu"/><path d="M549.8 544.4l-8.7 8.7M555.8 544.4l-5.2 5.2M578.8 544.4l-8.7 8.7M584.8 544.4l-5.2 5.2M607.8 544.4l-8.7 8.7M613.8 544.4l-5.2 5.2M636.8 544.4l-8.7 8.7M642.8 544.4l-5.2 5.2" class="rf"/><rect x="512.7" y="573.9" width="156.6" height="29.9" class="gl2"/><line x1="512.7" y1="573.9" x2="669.3" y2="573.9" class="o"/><rect x="509.8" y="603.7" width="162.4" height="5.8" class="w"/><rect x="509.8" y="609.5" width="162.4" height="8.7" class="sh"/><rect x="361.9" y="453.5" width="110.2" height="37.7" class="fr"/><rect x="363.6" y="455.2" width="106.7" height="34.2" class="gl"/><path d="M398.6 455.2V489.5M435.4 455.2V489.5" class="mu"/><path d="M383.2 457.3l-11 11M389.2 457.3l-6.6 6.6M419.9 457.3l-11 11M425.9 457.3l-6.6 6.6M456.7 457.3l-11 11M462.7 457.3l-6.6 6.6" class="rf"/><rect x="360.2" y="491.2" width="113.7" height="2" class="pt"/><rect x="709.9" y="453.5" width="110.2" height="37.7" class="fr"/><rect x="711.6" y="455.2" width="106.7" height="34.2" class="gl"/><path d="M746.6 455.2V489.5M783.4 455.2V489.5" class="mu"/><path d="M731.2 457.3l-11 11M737.2 457.3l-6.6 6.6M767.9 457.3l-11 11M773.9 457.3l-6.6 6.6M804.7 457.3l-11 11M810.7 457.3l-6.6 6.6" class="rf"/><rect x="708.2" y="491.2" width="113.7" height="2" class="pt"/><rect x="533" y="450.6" width="116" height="68.1" class="fr"/><rect x="534.7" y="452.3" width="112.5" height="64.7" class="gl"/><path d="M562 452.3V517M591 452.3V517M620 452.3V517" class="mu"/><path d="M549.8 457.4l-8.7 8.7M555.8 457.4l-5.2 5.2M578.8 457.4l-8.7 8.7M584.8 457.4l-5.2 5.2M607.8 457.4l-8.7 8.7M613.8 457.4l-5.2 5.2M636.8 457.4l-8.7 8.7M642.8 457.4l-5.2 5.2" class="rf"/><rect x="512.7" y="486.9" width="156.6" height="29.9" class="gl2"/><line x1="512.7" y1="486.9" x2="669.3" y2="486.9" class="o"/><rect x="509.8" y="516.7" width="162.4" height="5.8" class="w"/><rect x="509.8" y="522.5" width="162.4" height="8.7" class="sh"/><line x1="340.2" y1="520.2" x2="509.8" y2="520.2" class="tn"/><line x1="672.2" y1="520.2" x2="841.9" y2="520.2" class="tn"/><rect x="361.9" y="366.5" width="110.2" height="37.7" class="fr"/><rect x="363.6" y="368.2" width="106.7" height="34.2" class="gl"/><path d="M398.6 368.2V402.5M435.4 368.2V402.5" class="mu"/><path d="M383.2 370.3l-11 11M389.2 370.3l-6.6 6.6M419.9 370.3l-11 11M425.9 370.3l-6.6 6.6M456.7 370.3l-11 11M462.7 370.3l-6.6 6.6" class="rf"/><rect x="360.2" y="404.2" width="113.7" height="2" class="pt"/><rect x="709.9" y="366.5" width="110.2" height="37.7" class="fr"/><rect x="711.6" y="368.2" width="106.7" height="34.2" class="gl"/><path d="M746.6 368.2V402.5M783.4 368.2V402.5" class="mu"/><path d="M731.2 370.3l-11 11M737.2 370.3l-6.6 6.6M767.9 370.3l-11 11M773.9 370.3l-6.6 6.6M804.7 370.3l-11 11M810.7 370.3l-6.6 6.6" class="rf"/><rect x="708.2" y="404.2" width="113.7" height="2" class="pt"/><rect x="533" y="363.6" width="116" height="68.1" class="fr"/><rect x="534.7" y="365.3" width="112.5" height="64.7" class="gl"/><path d="M562 365.3V430M591 365.3V430M620 365.3V430" class="mu"/><path d="M549.8 370.4l-8.7 8.7M555.8 370.4l-5.2 5.2M578.8 370.4l-8.7 8.7M584.8 370.4l-5.2 5.2M607.8 370.4l-8.7 8.7M613.8 370.4l-5.2 5.2M636.8 370.4l-8.7 8.7M642.8 370.4l-5.2 5.2" class="rf"/><rect x="512.7" y="399.9" width="156.6" height="29.9" class="gl2"/><line x1="512.7" y1="399.9" x2="669.3" y2="399.9" class="o"/><rect x="509.8" y="429.7" width="162.4" height="5.8" class="w"/><rect x="509.8" y="435.5" width="162.4" height="8.7" class="sh"/><line x1="340.2" y1="433.2" x2="509.8" y2="433.2" class="tn"/><line x1="672.2" y1="433.2" x2="841.9" y2="433.2" class="tn"/><rect x="361.9" y="279.5" width="110.2" height="37.7" class="fr"/><rect x="363.6" y="281.2" width="106.7" height="34.2" class="gl"/><path d="M398.6 281.2V315.5M435.4 281.2V315.5" class="mu"/><path d="M383.2 283.3l-11 11M389.2 283.3l-6.6 6.6M419.9 283.3l-11 11M425.9 283.3l-6.6 6.6M456.7 283.3l-11 11M462.7 283.3l-6.6 6.6" class="rf"/><rect x="360.2" y="317.2" width="113.7" height="2" class="pt"/><rect x="709.9" y="279.5" width="110.2" height="37.7" class="fr"/><rect x="711.6" y="281.2" width="106.7" height="34.2" class="gl"/><path d="M746.6 281.2V315.5M783.4 281.2V315.5" class="mu"/><path d="M731.2 283.3l-11 11M737.2 283.3l-6.6 6.6M767.9 283.3l-11 11M773.9 283.3l-6.6 6.6M804.7 283.3l-11 11M810.7 283.3l-6.6 6.6" class="rf"/><rect x="708.2" y="317.2" width="113.7" height="2" class="pt"/><rect x="533" y="276.6" width="116" height="68.1" class="fr"/><rect x="534.7" y="278.3" width="112.5" height="64.7" class="gl"/><path d="M562 278.3V343M591 278.3V343M620 278.3V343" class="mu"/><path d="M549.8 283.4l-8.7 8.7M555.8 283.4l-5.2 5.2M578.8 283.4l-8.7 8.7M584.8 283.4l-5.2 5.2M607.8 283.4l-8.7 8.7M613.8 283.4l-5.2 5.2M636.8 283.4l-8.7 8.7M642.8 283.4l-5.2 5.2" class="rf"/><rect x="512.7" y="312.9" width="156.6" height="29.9" class="gl2"/><line x1="512.7" y1="312.9" x2="669.3" y2="312.9" class="o"/><rect x="509.8" y="342.7" width="162.4" height="5.8" class="w"/><rect x="509.8" y="348.5" width="162.4" height="8.7" class="sh"/><line x1="340.2" y1="346.2" x2="509.8" y2="346.2" class="tn"/><line x1="672.2" y1="346.2" x2="841.9" y2="346.2" class="tn"/><rect x="361.9" y="192.5" width="110.2" height="37.7" class="fr"/><rect x="363.6" y="194.2" width="106.7" height="34.2" class="gl"/><path d="M398.6 194.2V228.5M435.4 194.2V228.5" class="mu"/><path d="M383.2 196.3l-11 11M389.2 196.3l-6.6 6.6M419.9 196.3l-11 11M425.9 196.3l-6.6 6.6M456.7 196.3l-11 11M462.7 196.3l-6.6 6.6" class="rf"/><rect x="360.2" y="230.2" width="113.7" height="2" class="pt"/><rect x="709.9" y="192.5" width="110.2" height="37.7" class="fr"/><rect x="711.6" y="194.2" width="106.7" height="34.2" class="gl"/><path d="M746.6 194.2V228.5M783.4 194.2V228.5" class="mu"/><path d="M731.2 196.3l-11 11M737.2 196.3l-6.6 6.6M767.9 196.3l-11 11M773.9 196.3l-6.6 6.6M804.7 196.3l-11 11M810.7 196.3l-6.6 6.6" class="rf"/><rect x="708.2" y="230.2" width="113.7" height="2" class="pt"/><rect x="533" y="189.6" width="116" height="68.1" class="fr"/><rect x="534.7" y="191.3" width="112.5" height="64.7" class="gl"/><path d="M562 191.3V256M591 191.3V256M620 191.3V256" class="mu"/><path d="M549.8 196.4l-8.7 8.7M555.8 196.4l-5.2 5.2M578.8 196.4l-8.7 8.7M584.8 196.4l-5.2 5.2M607.8 196.4l-8.7 8.7M613.8 196.4l-5.2 5.2M636.8 196.4l-8.7 8.7M642.8 196.4l-5.2 5.2" class="rf"/><rect x="512.7" y="225.9" width="156.6" height="29.9" class="gl2"/><line x1="512.7" y1="225.9" x2="669.3" y2="225.9" class="o"/><rect x="509.8" y="255.7" width="162.4" height="5.8" class="w"/><rect x="509.8" y="261.5" width="162.4" height="8.7" class="sh"/><line x1="340.2" y1="259.2" x2="509.8" y2="259.2" class="tn"/><line x1="672.2" y1="259.2" x2="841.9" y2="259.2" class="tn"/><g class="trs"><circle cx="697" cy="694.6" r="10.9"/><circle cx="711.2" cy="695.1" r="10.8"/><circle cx="727" cy="694.6" r="12"/><circle cx="744.9" cy="694.2" r="12.4"/><circle cx="758.9" cy="694.9" r="12"/><circle cx="774.8" cy="694.3" r="12.1"/><circle cx="789.7" cy="694.2" r="11.7"/><circle cx="806.9" cy="694.7" r="11"/><circle cx="822.8" cy="694.6" r="11"/></g><g class="trf"><circle cx="697" cy="694.6" r="10.9"/><circle cx="711.2" cy="695.1" r="10.8"/><circle cx="727" cy="694.6" r="12"/><circle cx="744.9" cy="694.2" r="12.4"/><circle cx="758.9" cy="694.9" r="12"/><circle cx="774.8" cy="694.3" r="12.1"/><circle cx="789.7" cy="694.2" r="11.7"/><circle cx="806.9" cy="694.7" r="11"/><circle cx="822.8" cy="694.6" r="11"/></g><rect x="678" y="700" width="168.2" height="20" fill="#F4F4F2"/><path d="M263.3 700L264.8 602.1M269.1 700L267.7 602.1" class="trk"/><g class="trs"><circle cx="266.2" cy="586.9" r="43.5"/><circle cx="287.1" cy="579.3" r="22"/><circle cx="278.3" cy="571" r="23.6"/><circle cx="256.8" cy="567.6" r="20.1"/><circle cx="240.3" cy="586" r="20.4"/><circle cx="247.3" cy="597.7" r="22.7"/><circle cx="271.3" cy="606.2" r="21.6"/><circle cx="288.6" cy="596.9" r="22.1"/></g><g class="trf"><circle cx="266.2" cy="586.9" r="43.5"/><circle cx="287.1" cy="579.3" r="22"/><circle cx="278.3" cy="571" r="23.6"/><circle cx="256.8" cy="567.6" r="20.1"/><circle cx="240.3" cy="586" r="20.4"/><circle cx="247.3" cy="597.7" r="22.7"/><circle cx="271.3" cy="606.2" r="21.6"/><circle cx="288.6" cy="596.9" r="22.1"/></g><rect x="208.2" y="700" width="736.6" height="16" fill="url(#terra)" opacity="0.5"/><line x1="208.2" y1="700" x2="944.8" y2="700" stroke="#4A4A4A" stroke-width="2"/><g stroke="#4A4A4A" stroke-width="0.7"><line x1="325" y1="740" x2="857" y2="740"/><line x1="326.8" y1="743.2" x2="333.2" y2="736.8" stroke-width="1.3"/><line x1="330" y1="721" x2="330" y2="745"/><line x1="500.8" y1="743.2" x2="507.2" y2="736.8" stroke-width="1.3"/><line x1="504" y1="721" x2="504" y2="745"/><line x1="674.8" y1="743.2" x2="681.2" y2="736.8" stroke-width="1.3"/><line x1="678" y1="721" x2="678" y2="745"/><line x1="848.8" y1="743.2" x2="855.2" y2="736.8" stroke-width="1.3"/><line x1="852" y1="721" x2="852" y2="745"/></g><text x="417" y="736" font-size="10.5" text-anchor="middle" fill="#4A4A4A" style="stroke:#F4F4F2;stroke-width:3px;paint-order:stroke;stroke-linejoin:round">6,00</text><text x="591" y="736" font-size="10.5" text-anchor="middle" fill="#4A4A4A" style="stroke:#F4F4F2;stroke-width:3px;paint-order:stroke;stroke-linejoin:round">6,00</text><text x="765" y="736" font-size="10.5" text-anchor="middle" fill="#4A4A4A" style="stroke:#F4F4F2;stroke-width:3px;paint-order:stroke;stroke-linejoin:round">6,00</text><line x1="330" y1="748" x2="330" y2="758" stroke="#4A6089" stroke-width="0.7" stroke-dasharray="18 4 3 4"/><circle cx="330" cy="769" r="11" fill="#F4F4F2" stroke="#4A6089" stroke-width="1"/><text x="330" y="773" font-size="11" font-weight="600" text-anchor="middle" fill="#0F2344">1</text><line x1="504" y1="748" x2="504" y2="758" stroke="#4A6089" stroke-width="0.7" stroke-dasharray="18 4 3 4"/><circle cx="504" cy="769" r="11" fill="#F4F4F2" stroke="#4A6089" stroke-width="1"/><text x="504" y="773" font-size="11" font-weight="600" text-anchor="middle" fill="#0F2344">2</text><line x1="678" y1="748" x2="678" y2="758" stroke="#4A6089" stroke-width="0.7" stroke-dasharray="18 4 3 4"/><circle cx="678" cy="769" r="11" fill="#F4F4F2" stroke="#4A6089" stroke-width="1"/><text x="678" y="773" font-size="11" font-weight="600" text-anchor="middle" fill="#0F2344">3</text><line x1="852" y1="748" x2="852" y2="758" stroke="#4A6089" stroke-width="0.7" stroke-dasharray="18 4 3 4"/><circle cx="852" cy="769" r="11" fill="#F4F4F2" stroke="#4A6089" stroke-width="1"/><text x="852" y="773" font-size="11" font-weight="600" text-anchor="middle" fill="#0F2344">4</text><g stroke="#0F2344" stroke-width="0.8" fill="none"><line x1="866.5" y1="700" x2="936.5" y2="700"/><polygon points="878.5,700 873.5,692 883.5,692"/><polygon points="878.5,700 873.5,692 878.5,692" fill="#0F2344" stroke="none"/></g><text x="887.5" y="696.5" font-size="10.5" font-weight="600" text-anchor="start" fill="#0F2344">+0,00</text><text x="887.5" y="711" font-size="8" text-anchor="start" fill="#0F2344" letter-spacing="0.5">TÉRREO</text><g stroke="#0F2344" stroke-width="0.8" fill="none"><line x1="866.5" y1="607.2" x2="936.5" y2="607.2"/><polygon points="878.5,607.2 873.5,599.2 883.5,599.2"/><polygon points="878.5,607.2 873.5,599.2 878.5,599.2" fill="#0F2344" stroke="none"/></g><text x="887.5" y="603.7" font-size="10.5" font-weight="600" text-anchor="start" fill="#0F2344">+3,20</text><text x="887.5" y="618.2" font-size="8" text-anchor="start" fill="#0F2344" letter-spacing="0.5">1º PAV.</text><g stroke="#0F2344" stroke-width="0.8" fill="none"><line x1="866.5" y1="520.2" x2="936.5" y2="520.2"/><polygon points="878.5,520.2 873.5,512.2 883.5,512.2"/><polygon points="878.5,520.2 873.5,512.2 878.5,512.2" fill="#0F2344" stroke="none"/></g><text x="887.5" y="516.7" font-size="10.5" font-weight="600" text-anchor="start" fill="#0F2344">+6,20</text><text x="887.5" y="531.2" font-size="8" text-anchor="start" fill="#0F2344" letter-spacing="0.5">2º PAV.</text><g stroke="#0F2344" stroke-width="0.8" fill="none"><line x1="866.5" y1="433.2" x2="936.5" y2="433.2"/><polygon points="878.5,433.2 873.5,425.2 883.5,425.2"/><polygon points="878.5,433.2 873.5,425.2 878.5,425.2" fill="#0F2344" stroke="none"/></g><text x="887.5" y="429.7" font-size="10.5" font-weight="600" text-anchor="start" fill="#0F2344">+9,20</text><text x="887.5" y="444.2" font-size="8" text-anchor="start" fill="#0F2344" letter-spacing="0.5">3º PAV.</text><g stroke="#0F2344" stroke-width="0.8" fill="none"><line x1="866.5" y1="346.2" x2="936.5" y2="346.2"/><polygon points="878.5,346.2 873.5,338.2 883.5,338.2"/><polygon points="878.5,346.2 873.5,338.2 878.5,338.2" fill="#0F2344" stroke="none"/></g><text x="887.5" y="342.7" font-size="10.5" font-weight="600" text-anchor="start" fill="#0F2344">+12,20</text><text x="887.5" y="357.2" font-size="8" text-anchor="start" fill="#0F2344" letter-spacing="0.5">4º PAV.</text><g stroke="#0F2344" stroke-width="0.8" fill="none"><line x1="866.5" y1="259.2" x2="936.5" y2="259.2"/><polygon points="878.5,259.2 873.5,251.2 883.5,251.2"/><polygon points="878.5,259.2 873.5,251.2 878.5,251.2" fill="#0F2344" stroke="none"/></g><text x="887.5" y="255.7" font-size="10.5" font-weight="600" text-anchor="start" fill="#0F2344">+15,20</text><text x="887.5" y="270.2" font-size="8" text-anchor="start" fill="#0F2344" letter-spacing="0.5">5º PAV.</text><g stroke="#0F2344" stroke-width="0.8" fill="none"><line x1="866.5" y1="172.2" x2="936.5" y2="172.2"/><polygon points="878.5,172.2 873.5,164.2 883.5,164.2"/><polygon points="878.5,172.2 873.5,164.2 878.5,164.2" fill="#0F2344" stroke="none"/></g><text x="887.5" y="168.7" font-size="10.5" font-weight="600" text-anchor="start" fill="#0F2344">+18,20</text><text x="887.5" y="183.2" font-size="8" text-anchor="start" fill="#0F2344" letter-spacing="0.5">COBERTURA</text><g stroke="#0F2344" stroke-width="0.8" fill="none"><line x1="866.5" y1="62" x2="936.5" y2="62"/><polygon points="878.5,62 873.5,54 883.5,54"/><polygon points="878.5,62 873.5,54 878.5,54" fill="#0F2344" stroke="none"/></g><text x="887.5" y="58.5" font-size="10.5" font-weight="600" text-anchor="start" fill="#0F2344">+22,00</text><text x="887.5" y="73" font-size="8" text-anchor="start" fill="#0F2344" letter-spacing="0.5">RESERVATÓRIO</text><text x="60" y="70" font-size="14" font-weight="700" fill="#0F2344" letter-spacing="0.4">FACHADA FRONTAL</text><line x1="60" y1="76" x2="211" y2="76" stroke="#0F2344" stroke-width="1.6"/><line x1="60" y1="79.5" x2="211" y2="79.5" stroke="#0F2344" stroke-width="0.6"/><text x="211" y="93" font-size="9.5" text-anchor="end" fill="#4A4A4A" letter-spacing="0.4">ESC. 1:100</text><rect x="18" y="18" width="1164" height="864" fill="none" stroke="#0F2344" stroke-width="1.1"/><g stroke="#0F2344" stroke-width="0.8"><line x1="600" y1="18" x2="600" y2="25"/><line x1="600" y1="882" x2="600" y2="875"/><line x1="18" y1="450" x2="25" y2="450"/><line x1="1182" y1="450" x2="1175" y2="450"/></g><rect x="826" y="796" width="356" height="86" fill="#F4F4F2" stroke="#0F2344" stroke-width="1.1"/><g stroke="#0F2344" stroke-width="0.6"><line x1="826" y1="829" x2="1182" y2="829"/><line x1="826" y1="858" x2="1182" y2="858"/><line x1="944" y1="858" x2="944" y2="882"/><line x1="1062" y1="858" x2="1062" y2="882"/></g><g transform="translate(831 801) scale(0.23)"><rect width="100" height="100" fill="#0F2344"/><g fill="none" stroke="#fff"><rect x="6" y="6" width="88" height="88" stroke-width="3"/><rect x="12" y="12" width="76" height="76" stroke-width="1.2"/></g><g fill="#fff"><polygon points="36.5,24 39,24 23.5,74 21,74"/><polygon points="37,24 40,24 55,74 46,74"/><rect x="28" y="55" width="16" height="2.5"/><rect x="17" y="73.5" width="12" height="2.5"/><rect x="43" y="73.5" width="15" height="2.5"/><rect x="60" y="26" width="8" height="50"/><rect x="56" y="24" width="16" height="2.5"/><rect x="56" y="73.5" width="6" height="2.5"/><rect x="60" y="72" width="24" height="4"/><rect x="81.5" y="65" width="2.5" height="11"/></g></g><text x="862" y="812" font-size="11.5" font-weight="700" fill="#0F2344" letter-spacing="1.1">ALBANO LUZ ENGENHARIA</text><text x="862" y="823.5" font-size="6.8" fill="#4A4A4A" letter-spacing="0.9">PROJETO ESTRUTURAL · CÁLCULO E DETALHAMENTO</text><text x="833" y="838" font-size="6.2" fill="#4A4A4A" letter-spacing="1">DESENHO</text><text x="833" y="852" font-size="11" font-weight="700" fill="#0F2344">FACHADA FRONTAL — EDIFÍCIO 6 PAV.</text><text x="833" y="874" font-size="9.5" font-weight="600" fill="#0F2344">ESC. 1:100</text><text x="951" y="874" font-size="9.5" font-weight="600" fill="#0F2344">FOLHA 04/08</text><text x="1069" y="874" font-size="9.5" font-weight="600" fill="#0F2344">REV. 00</text></svg>
