<svg xmlns="http://www.w3.org/2000/svg" width="1200" height="900" viewBox="0 0 1200 900" font-family="Inter, Arial, Helvetica, sans-serif"><style>text{stroke:none}.vg1{fill:none;stroke:#0F2344;stroke-width:.95}.pi{fill:#0F2344}.vz{fill:none;stroke:#4A4A4A;stroke-width:.6}.bl{fill:#fff;stroke:#0F2344;stroke-width:1.1}.es{fill:#fff;stroke:#0F2344;stroke-width:.8;stroke-dasharray:3 2}.ec{fill:none;stroke:#0F2344;stroke-width:.5}.hl{fill:url(#hn)}.tb{fill:none;stroke:#0F2344;stroke-width:.7}.lj{fill:#FBFBFA}.sp{fill:#fff;stroke:#0F2344;stroke-width:1.1}.sl{fill:none;stroke:#0F2344;stroke-width:.55}</style><defs><pattern id="hn" width="6" height="6" patternUnits="userSpaceOnUse" patternTransform="rotate(45)"><path d="M0 0V6" stroke="#0F2344" stroke-opacity=".35" stroke-width=".8"/></pattern></defs><rect width="1200" height="900" fill="#F4F4F2"/><line x1="190" y1="115" x2="190" y2="680" stroke="#4A6089" stroke-width="0.7" stroke-dasharray="18 4 3 4"/><circle cx="190" cy="103" r="12" fill="#F4F4F2" stroke="#4A6089" stroke-width="1"/><text x="190" y="107.1" font-size="11.5" font-weight="600" text-anchor="middle" fill="#0F2344">1</text><line x1="358" y1="115" x2="358" y2="680" stroke="#4A6089" stroke-width="0.7" stroke-dasharray="18 4 3 4"/><circle cx="358" cy="103" r="12" fill="#F4F4F2" stroke="#4A6089" stroke-width="1"/><text x="358" y="107.1" font-size="11.5" font-weight="600" text-anchor="middle" fill="#0F2344">2</text><line x1="517.6" y1="115" x2="517.6" y2="680" stroke="#4A6089" stroke-width="0.7" stroke-dasharray="18 4 3 4"/><circle cx="517.6" cy="103" r="12" fill="#F4F4F2" stroke="#4A6089" stroke-width="1"/><text x="517.6" y="107.1" font-size="11.5" font-weight="600" text-anchor="middle" fill="#0F2344">3</text><line x1="618.4" y1="115" x2="618.4" y2="680" stroke="#4A6089" stroke-width="0.7" stroke-dasharray="18 4 3 4"/><circle cx="618.4" cy="103" r="12" fill="#F4F4F2" stroke="#4A6089" stroke-width="1"/><text x="618.4" y="107.1" font-size="11.5" font-weight="600" text-anchor="middle" fill="#0F2344">4</text><line x1="778" y1="115" x2="778" y2="680" stroke="#4A6089" stroke-width="0.7" stroke-dasharray="18 4 3 4"/><circle cx="778" cy="103" r="12" fill="#F4F4F2" stroke="#4A6089" stroke-width="1"/><text x="778" y="107.1" font-size="11.5" font-weight="600" text-anchor="middle" fill="#0F2344">5</text><line x1="946" y1="115" x2="946" y2="680" stroke="#4A6089" stroke-width="0.7" stroke-dasharray="18 4 3 4"/><circle cx="946" cy="103" r="12" fill="#F4F4F2" stroke="#4A6089" stroke-width="1"/><text x="946" y="107.1" font-size="11.5" font-weight="600" text-anchor="middle" fill="#0F2344">6</text><line x1="130" y1="175" x2="968" y2="175" stroke="#4A6089" stroke-width="0.7" stroke-dasharray="18 4 3 4"/><circle cx="118" cy="175" r="12" fill="#F4F4F2" stroke="#4A6089" stroke-width="1"/><text x="118" y="179.1" font-size="11.5" font-weight="600" text-anchor="middle" fill="#0F2344">A</text><line x1="130" y1="364" x2="968" y2="364" stroke="#4A6089" stroke-width="0.7" stroke-dasharray="18 4 3 4"/><circle cx="118" cy="364" r="12" fill="#F4F4F2" stroke="#4A6089" stroke-width="1"/><text x="118" y="368.1" font-size="11.5" font-weight="600" text-anchor="middle" fill="#0F2344">B</text><line x1="130" y1="469" x2="968" y2="469" stroke="#4A6089" stroke-width="0.7" stroke-dasharray="18 4 3 4"/><circle cx="118" cy="469" r="12" fill="#F4F4F2" stroke="#4A6089" stroke-width="1"/><text x="118" y="473.1" font-size="11.5" font-weight="600" text-anchor="middle" fill="#0F2344">C</text><line x1="130" y1="658" x2="968" y2="658" stroke="#4A6089" stroke-width="0.7" stroke-dasharray="18 4 3 4"/><circle cx="118" cy="658" r="12" fill="#F4F4F2" stroke="#4A6089" stroke-width="1"/><text x="118" y="662.1" font-size="11.5" font-weight="600" text-anchor="middle" fill="#0F2344">D</text><g stroke="#4A4A4A" stroke-width="0.7"><line x1="185" y1="151" x2="951" y2="151"/><line x1="186.8" y1="154.2" x2="193.2" y2="147.8" stroke-width="1.3"/><line x1="190" y1="146" x2="190" y2="156"/><line x1="354.8" y1="154.2" x2="361.2" y2="147.8" stroke-width="1.3"/><line x1="358" y1="146" x2="358" y2="156"/><line x1="514.4" y1="154.2" x2="520.8" y2="147.8" stroke-width="1.3"/><line x1="517.6" y1="146" x2="517.6" y2="156"/><line x1="615.2" y1="154.2" x2="621.6" y2="147.8" stroke-width="1.3"/><line x1="618.4" y1="146" x2="618.4" y2="156"/><line x1="774.8" y1="154.2" x2="781.2" y2="147.8" stroke-width="1.3"/><line x1="778" y1="146" x2="778" y2="156"/><line x1="942.8" y1="154.2" x2="949.2" y2="147.8" stroke-width="1.3"/><line x1="946" y1="146" x2="946" y2="156"/></g><text x="274" y="147" font-size="10.5" text-anchor="middle" fill="#4A4A4A" style="stroke:#F4F4F2;stroke-width:3px;paint-order:stroke;stroke-linejoin:round">4,00</text><text x="437.8" y="147" font-size="10.5" text-anchor="middle" fill="#4A4A4A" style="stroke:#F4F4F2;stroke-width:3px;paint-order:stroke;stroke-linejoin:round">3,80</text><text x="568" y="147" font-size="10.5" text-anchor="middle" fill="#4A4A4A" style="stroke:#F4F4F2;stroke-width:3px;paint-order:stroke;stroke-linejoin:round">2,40</text><text x="698.2" y="147" font-size="10.5" text-anchor="middle" fill="#4A4A4A" style="stroke:#F4F4F2;stroke-width:3px;paint-order:stroke;stroke-linejoin:round">3,80</text><text x="862" y="147" font-size="10.5" text-anchor="middle" fill="#4A4A4A" style="stroke:#F4F4F2;stroke-width:3px;paint-order:stroke;stroke-linejoin:round">4,00</text><g stroke="#4A4A4A" stroke-width="0.7"><line x1="185" y1="129" x2="951" y2="129"/><line x1="186.8" y1="132.2" x2="193.2" y2="125.8" stroke-width="1.3"/><line x1="190" y1="124" x2="190" y2="134"/><line x1="942.8" y1="132.2" x2="949.2" y2="125.8" stroke-width="1.3"/><line x1="946" y1="124" x2="946" y2="134"/></g><text x="568" y="125" font-size="10.5" text-anchor="middle" fill="#4A4A4A" style="stroke:#F4F4F2;stroke-width:3px;paint-order:stroke;stroke-linejoin:round">18,00</text><g stroke="#4A4A4A" stroke-width="0.7"><line x1="166" y1="170" x2="166" y2="663"/><line x1="162.8" y1="178.2" x2="169.2" y2="171.8" stroke-width="1.3"/><line x1="161" y1="175" x2="171" y2="175"/><line x1="162.8" y1="367.2" x2="169.2" y2="360.8" stroke-width="1.3"/><line x1="161" y1="364" x2="171" y2="364"/><line x1="162.8" y1="472.2" x2="169.2" y2="465.8" stroke-width="1.3"/><line x1="161" y1="469" x2="171" y2="469"/><line x1="162.8" y1="661.2" x2="169.2" y2="654.8" stroke-width="1.3"/><line x1="161" y1="658" x2="171" y2="658"/></g><text x="162" y="269.5" font-size="10.5" text-anchor="middle" fill="#4A4A4A" style="stroke:#F4F4F2;stroke-width:3px;paint-order:stroke;stroke-linejoin:round" transform="rotate(-90 162 269.5)">4,50</text><text x="162" y="416.5" font-size="10.5" text-anchor="middle" fill="#4A4A4A" style="stroke:#F4F4F2;stroke-width:3px;paint-order:stroke;stroke-linejoin:round" transform="rotate(-90 162 416.5)">2,50</text><text x="162" y="563.5" font-size="10.5" text-anchor="middle" fill="#4A4A4A" style="stroke:#F4F4F2;stroke-width:3px;paint-order:stroke;stroke-linejoin:round" transform="rotate(-90 162 563.5)">4,50</text><g stroke="#4A4A4A" stroke-width="0.7"><line x1="144" y1="170" x2="144" y2="663"/><line x1="140.8" y1="178.2" x2="147.2" y2="171.8" stroke-width="1.3"/><line x1="139" y1="175" x2="149" y2="175"/><line x1="140.8" y1="661.2" x2="147.2" y2="654.8" stroke-width="1.3"/><line x1="139" y1="658" x2="149" y2="658"/></g><text x="140" y="416.5" font-size="10.5" text-anchor="middle" fill="#4A4A4A" style="stroke:#F4F4F2;stroke-width:3px;paint-order:stroke;stroke-linejoin:round" transform="rotate(-90 140 416.5)">11,50</text><rect x="190" y="175" width="168" height="189" class="lj"/><rect x="358" y="175" width="159.6" height="189" class="lj"/><rect x="517.6" y="175" width="100.8" height="189" class="lj"/><rect x="618.4" y="175" width="159.6" height="189" class="lj"/><rect x="778" y="175" width="168" height="189" class="lj"/><rect x="190" y="364" width="168" height="105" class="lj"/><rect x="358" y="364" width="159.6" height="105" class="lj"/><rect x="618.4" y="364" width="159.6" height="105" class="lj"/><rect x="778" y="364" width="168" height="105" class="lj"/><rect x="190" y="469" width="168" height="189" class="lj"/><rect x="358" y="469" width="159.6" height="189" class="lj"/><rect x="517.6" y="469" width="100.8" height="189" class="lj"/><rect x="618.4" y="469" width="159.6" height="189" class="lj"/><rect x="778" y="469" width="168" height="189" class="lj"/><rect x="215.2" y="658" width="142.8" height="58.8" class="hl"/><rect x="778" y="658" width="142.8" height="58.8" class="hl"/><path d="M520.8 367.2L615.3 465.9M615.3 367.2L520.8 465.9M215.2 658V716.8H358V658M221.5 658V710.5H351.7V658M778 658V716.8H920.8V658M784.3 658V710.5H914.5V658M190 171.9H946M190 178.2H946M190 360.9H946M190 367.2H946M190 465.9H946M190 472.2H946M190 654.9H946M190 661.2H946M186.9 175V658M193.2 175V658M354.9 175V658M361.2 175V658M514.5 175V658M520.8 175V658M615.3 175V658M621.6 175V658M774.9 175V658M781.2 175V658M942.9 175V658M949.2 175V658" class="vg1"/><rect x="179.5" y="170.8" width="21" height="8.4" class="pi"/><rect x="347.5" y="170.8" width="21" height="8.4" class="pi"/><rect x="507.1" y="170.8" width="21" height="8.4" class="pi"/><rect x="607.9" y="170.8" width="21" height="8.4" class="pi"/><rect x="767.5" y="170.8" width="21" height="8.4" class="pi"/><rect x="935.5" y="170.8" width="21" height="8.4" class="pi"/><rect x="185.8" y="353.5" width="8.4" height="21" class="pi"/><rect x="352.8" y="351.4" width="10.5" height="25.2" class="pi"/><rect x="512.3" y="351.4" width="10.5" height="25.2" class="pi"/><rect x="613.2" y="351.4" width="10.5" height="25.2" class="pi"/><rect x="772.8" y="351.4" width="10.5" height="25.2" class="pi"/><rect x="941.8" y="353.5" width="8.4" height="21" class="pi"/><rect x="185.8" y="458.5" width="8.4" height="21" class="pi"/><rect x="352.8" y="456.4" width="10.5" height="25.2" class="pi"/><rect x="512.3" y="456.4" width="10.5" height="25.2" class="pi"/><rect x="613.2" y="456.4" width="10.5" height="25.2" class="pi"/><rect x="772.8" y="456.4" width="10.5" height="25.2" class="pi"/><rect x="941.8" y="458.5" width="8.4" height="21" class="pi"/><rect x="179.5" y="653.8" width="21" height="8.4" class="pi"/><rect x="347.5" y="653.8" width="21" height="8.4" class="pi"/><rect x="507.1" y="653.8" width="21" height="8.4" class="pi"/><rect x="607.9" y="653.8" width="21" height="8.4" class="pi"/><rect x="767.5" y="653.8" width="21" height="8.4" class="pi"/><rect x="935.5" y="653.8" width="21" height="8.4" class="pi"/><text x="274" y="189.2" font-size="9" text-anchor="middle" fill="#0F2344">V1 (15x55)</text><text x="274" y="378.2" font-size="9" text-anchor="middle" fill="#0F2344">V2 (15x55)</text><text x="274" y="483.2" font-size="9" text-anchor="middle" fill="#0F2344">V3 (15x55)</text><text x="274" y="672.2" font-size="9" text-anchor="middle" fill="#0F2344">V4 (15x55)</text><text x="204.2" y="269.5" font-size="9" text-anchor="middle" fill="#0F2344" transform="rotate(-90 204.2 269.5)">V5 (15x50)</text><text x="372.2" y="269.5" font-size="9" text-anchor="middle" fill="#0F2344" transform="rotate(-90 372.2 269.5)">V6 (15x50)</text><text x="531.7" y="269.5" font-size="9" text-anchor="middle" fill="#0F2344" transform="rotate(-90 531.7 269.5)">V7 (15x50)</text><text x="632.6" y="269.5" font-size="9" text-anchor="middle" fill="#0F2344" transform="rotate(-90 632.6 269.5)">V8 (15x50)</text><text x="792.2" y="269.5" font-size="9" text-anchor="middle" fill="#0F2344" transform="rotate(-90 792.2 269.5)">V9 (15x50)</text><text x="960.2" y="269.5" font-size="9" text-anchor="middle" fill="#0F2344" transform="rotate(-90 960.2 269.5)">V10 (15x50)</text><text x="274" y="267.5" font-size="12" font-weight="700" text-anchor="middle" fill="#0F2344">L1</text><text x="274" y="280.5" font-size="9.5" text-anchor="middle" fill="#4A4A4A">h = 12</text><text x="437.8" y="267.5" font-size="12" font-weight="700" text-anchor="middle" fill="#0F2344">L2</text><text x="437.8" y="280.5" font-size="9.5" text-anchor="middle" fill="#4A4A4A">h = 12</text><text x="568" y="267.5" font-size="12" font-weight="700" text-anchor="middle" fill="#0F2344">L3</text><text x="568" y="280.5" font-size="9.5" text-anchor="middle" fill="#4A4A4A">h = 12</text><text x="698.2" y="267.5" font-size="12" font-weight="700" text-anchor="middle" fill="#0F2344">L4</text><text x="698.2" y="280.5" font-size="9.5" text-anchor="middle" fill="#4A4A4A">h = 12</text><text x="862" y="267.5" font-size="12" font-weight="700" text-anchor="middle" fill="#0F2344">L5</text><text x="862" y="280.5" font-size="9.5" text-anchor="middle" fill="#4A4A4A">h = 12</text><text x="274" y="414.5" font-size="12" font-weight="700" text-anchor="middle" fill="#0F2344">L6</text><text x="274" y="427.5" font-size="9.5" text-anchor="middle" fill="#4A4A4A">h = 10</text><text x="437.8" y="414.5" font-size="12" font-weight="700" text-anchor="middle" fill="#0F2344">L7</text><text x="437.8" y="427.5" font-size="9.5" text-anchor="middle" fill="#4A4A4A">h = 10</text><rect x="522.1" y="405.5" width="91.9" height="16" fill="#F4F4F2"/><text x="568" y="417.5" font-size="9.5" font-weight="700" text-anchor="middle" fill="#4A4A4A" letter-spacing="0.6">ESCADA / ELEV.</text><text x="698.2" y="414.5" font-size="12" font-weight="700" text-anchor="middle" fill="#0F2344">L8</text><text x="698.2" y="427.5" font-size="9.5" text-anchor="middle" fill="#4A4A4A">h = 10</text><text x="862" y="414.5" font-size="12" font-weight="700" text-anchor="middle" fill="#0F2344">L9</text><text x="862" y="427.5" font-size="9.5" text-anchor="middle" fill="#4A4A4A">h = 10</text><text x="274" y="561.5" font-size="12" font-weight="700" text-anchor="middle" fill="#0F2344">L10</text><text x="274" y="574.5" font-size="9.5" text-anchor="middle" fill="#4A4A4A">h = 12</text><text x="437.8" y="561.5" font-size="12" font-weight="700" text-anchor="middle" fill="#0F2344">L11</text><text x="437.8" y="574.5" font-size="9.5" text-anchor="middle" fill="#4A4A4A">h = 12</text><text x="568" y="561.5" font-size="12" font-weight="700" text-anchor="middle" fill="#0F2344">L12</text><text x="568" y="574.5" font-size="9.5" text-anchor="middle" fill="#4A4A4A">h = 12</text><text x="698.2" y="561.5" font-size="12" font-weight="700" text-anchor="middle" fill="#0F2344">L13</text><text x="698.2" y="574.5" font-size="9.5" text-anchor="middle" fill="#4A4A4A">h = 12</text><text x="862" y="561.5" font-size="12" font-weight="700" text-anchor="middle" fill="#0F2344">L14</text><text x="862" y="574.5" font-size="9.5" text-anchor="middle" fill="#4A4A4A">h = 12</text><text x="286.6" y="686.4" font-size="11" font-weight="700" text-anchor="middle" fill="#0F2344">L15</text><text x="286.6" y="697.4" font-size="8.5" text-anchor="middle" fill="#4A4A4A">h = 10 (−5)</text><text x="849.4" y="686.4" font-size="11" font-weight="700" text-anchor="middle" fill="#0F2344">L16</text><text x="849.4" y="697.4" font-size="8.5" text-anchor="middle" fill="#4A4A4A">h = 10 (−5)</text><text x="203.5" y="166.8" font-size="8.5" font-weight="600" fill="#0F2344">P1 50x20</text><text x="371.5" y="166.8" font-size="8.5" font-weight="600" fill="#0F2344">P2 50x20</text><text x="531.1" y="166.8" font-size="8.5" font-weight="600" fill="#0F2344">P3 50x20</text><text x="631.9" y="166.8" font-size="8.5" font-weight="600" fill="#0F2344">P4 50x20</text><text x="791.5" y="166.8" font-size="8.5" font-weight="600" fill="#0F2344">P5 50x20</text><text x="959.5" y="166.8" font-size="8.5" font-weight="600" fill="#0F2344">P6 50x20</text><text x="197.2" y="349.5" font-size="8.5" font-weight="600" fill="#0F2344">P7 20x50</text><text x="366.3" y="347.4" font-size="8.5" font-weight="600" fill="#0F2344">P8 25x60</text><text x="525.8" y="347.4" font-size="8.5" font-weight="600" fill="#0F2344">P9 25x60</text><text x="626.7" y="347.4" font-size="8.5" font-weight="600" fill="#0F2344">P10 25x60</text><text x="786.3" y="347.4" font-size="8.5" font-weight="600" fill="#0F2344">P11 25x60</text><text x="953.2" y="349.5" font-size="8.5" font-weight="600" fill="#0F2344">P12 20x50</text><text x="197.2" y="454.5" font-size="8.5" font-weight="600" fill="#0F2344">P13 20x50</text><text x="366.3" y="452.4" font-size="8.5" font-weight="600" fill="#0F2344">P14 25x60</text><text x="525.8" y="452.4" font-size="8.5" font-weight="600" fill="#0F2344">P15 25x60</text><text x="626.7" y="452.4" font-size="8.5" font-weight="600" fill="#0F2344">P16 25x60</text><text x="786.3" y="452.4" font-size="8.5" font-weight="600" fill="#0F2344">P17 25x60</text><text x="953.2" y="454.5" font-size="8.5" font-weight="600" fill="#0F2344">P18 20x50</text><text x="203.5" y="649.8" font-size="8.5" font-weight="600" fill="#0F2344">P19 50x20</text><text x="371.5" y="649.8" font-size="8.5" font-weight="600" fill="#0F2344">P20 50x20</text><text x="531.1" y="649.8" font-size="8.5" font-weight="600" fill="#0F2344">P21 50x20</text><text x="631.9" y="649.8" font-size="8.5" font-weight="600" fill="#0F2344">P22 50x20</text><text x="791.5" y="649.8" font-size="8.5" font-weight="600" fill="#0F2344">P23 50x20</text><text x="959.5" y="649.8" font-size="8.5" font-weight="600" fill="#0F2344">P24 50x20</text><g stroke="#0F2344" stroke-width="0.9" fill="none"><circle cx="1110" cy="110" r="22"/><polygon points="1110,91 1117,122.1 1110,115.5" fill="#0F2344"/><polygon points="1110,91 1103,122.1 1110,115.5"/><text x="1110" y="83" font-size="11" font-weight="700" text-anchor="middle" fill="#0F2344">N</text></g><rect x="990" y="250" width="170" height="86" fill="#fff" stroke="#0F2344" stroke-width="0.7"/><text x="1000" y="267" font-size="10" font-weight="700" fill="#0F2344" letter-spacing="1">NOTAS</text><text x="1000" y="284" font-size="9" fill="#4A4A4A">fck = 30 MPa</text><text x="1000" y="299" font-size="9" fill="#4A4A4A">Nível: +3,00 / +6,00 / +9,00</text><text x="1000" y="314" font-size="9" fill="#4A4A4A">Varandas: rebaixo −5 cm</text><text x="1000" y="329" font-size="9" fill="#4A4A4A">Vigas de borda 15x40</text><text x="60" y="822" font-size="14" font-weight="700" fill="#0F2344" letter-spacing="0.4">PLANTA DE FORMAS — PAV. TIPO</text><line x1="60" y1="828" x2="315.2" y2="828" stroke="#0F2344" stroke-width="1.6"/><line x1="60" y1="831.5" x2="315.2" y2="831.5" stroke="#0F2344" stroke-width="0.6"/><text x="315.2" y="845" font-size="9.5" text-anchor="end" fill="#4A4A4A" letter-spacing="0.4">ESC. 1:100</text><rect x="18" y="18" width="1164" height="864" fill="none" stroke="#0F2344" stroke-width="1.1"/><g stroke="#0F2344" stroke-width="0.8"><line x1="600" y1="18" x2="600" y2="25"/><line x1="600" y1="882" x2="600" y2="875"/><line x1="18" y1="450" x2="25" y2="450"/><line x1="1182" y1="450" x2="1175" y2="450"/></g><rect x="826" y="796" width="356" height="86" fill="#F4F4F2" stroke="#0F2344" stroke-width="1.1"/><g stroke="#0F2344" stroke-width="0.6"><line x1="826" y1="829" x2="1182" y2="829"/><line x1="826" y1="858" x2="1182" y2="858"/><line x1="944" y1="858" x2="944" y2="882"/><line x1="1062" y1="858" x2="1062" y2="882"/></g><g transform="translate(831 801) scale(0.23)"><rect width="100" height="100" fill="#0F2344"/><g fill="none" stroke="#fff"><rect x="6" y="6" width="88" height="88" stroke-width="3"/><rect x="12" y="12" width="76" height="76" stroke-width="1.2"/></g><g fill="#fff"><polygon points="36.5,24 39,24 23.5,74 21,74"/><polygon points="37,24 40,24 55,74 46,74"/><rect x="28" y="55" width="16" height="2.5"/><rect x="17" y="73.5" width="12" height="2.5"/><rect x="43" y="73.5" width="15" height="2.5"/><rect x="60" y="26" width="8" height="50"/><rect x="56" y="24" width="16" height="2.5"/><rect x="56" y="73.5" width="6" height="2.5"/><rect x="60" y="72" width="24" height="4"/><rect x="81.5" y="65" width="2.5" height="11"/></g></g><text x="862" y="812" font-size="11.5" font-weight="700" fill="#0F2344" letter-spacing="1.1">ALBANO LUZ ENGENHARIA</text><text x="862" y="823.5" font-size="6.8" fill="#4A4A4A" letter-spacing="0.9">PROJETO ESTRUTURAL · CÁLCULO E DETALHAMENTO</text><text x="833" y="838" font-size="6.2" fill="#4A4A4A" letter-spacing="1">DESENHO</text><text x="833" y="852" font-size="11" font-weight="700" fill="#0F2344">FORMAS — PAV. TIPO (1º AO 3º)</text><text x="833" y="874" font-size="9.5" font-weight="600" fill="#0F2344">ESC. 1:100</text><text x="951" y="874" font-size="9.5" font-weight="600" fill="#0F2344">FOLHA 05/12</text><text x="1069" y="874" font-size="9.5" font-weight="600" fill="#0F2344">REV. 00</text></svg>
