<svg xmlns="http://www.w3.org/2000/svg" width="1200" height="900" viewBox="0 0 1200 900" font-family="Inter, Arial, Helvetica, sans-serif"><style>text{stroke:none}.vg1{fill:none;stroke:#0F2344;stroke-width:.95}.pi{fill:#0F2344}.vz{fill:none;stroke:#4A4A4A;stroke-width:.6}.bl{fill:#fff;stroke:#0F2344;stroke-width:1.1}.es{fill:#fff;stroke:#0F2344;stroke-width:.8;stroke-dasharray:3 2}.ec{fill:none;stroke:#0F2344;stroke-width:.5}.hl{fill:url(#hn)}.tb{fill:none;stroke:#0F2344;stroke-width:.7}.lj{fill:#FBFBFA}.sp{fill:#fff;stroke:#0F2344;stroke-width:1.1}.sl{fill:none;stroke:#0F2344;stroke-width:.55}</style><defs><pattern id="hn" width="6" height="6" patternUnits="userSpaceOnUse" patternTransform="rotate(45)"><path d="M0 0V6" stroke="#0F2344" stroke-opacity=".35" stroke-width=".8"/></pattern></defs><rect width="1200" height="900" fill="#F4F4F2"/><line x1="150" y1="115" x2="150" y2="607.4" stroke="#4A6089" stroke-width="0.7" stroke-dasharray="18 4 3 4"/><circle cx="150" cy="103" r="12" fill="#F4F4F2" stroke="#4A6089" stroke-width="1"/><text x="150" y="107.1" font-size="11.5" font-weight="600" text-anchor="middle" fill="#0F2344">1</text><line x1="294.4" y1="115" x2="294.4" y2="607.4" stroke="#4A6089" stroke-width="0.7" stroke-dasharray="18 4 3 4"/><circle cx="294.4" cy="103" r="12" fill="#F4F4F2" stroke="#4A6089" stroke-width="1"/><text x="294.4" y="107.1" font-size="11.5" font-weight="600" text-anchor="middle" fill="#0F2344">2</text><line x1="438.8" y1="115" x2="438.8" y2="607.4" stroke="#4A6089" stroke-width="0.7" stroke-dasharray="18 4 3 4"/><circle cx="438.8" cy="103" r="12" fill="#F4F4F2" stroke="#4A6089" stroke-width="1"/><text x="438.8" y="107.1" font-size="11.5" font-weight="600" text-anchor="middle" fill="#0F2344">3</text><line x1="545.2" y1="115" x2="545.2" y2="607.4" stroke="#4A6089" stroke-width="0.7" stroke-dasharray="18 4 3 4"/><circle cx="545.2" cy="103" r="12" fill="#F4F4F2" stroke="#4A6089" stroke-width="1"/><text x="545.2" y="107.1" font-size="11.5" font-weight="600" text-anchor="middle" fill="#0F2344">4</text><line x1="689.6" y1="115" x2="689.6" y2="607.4" stroke="#4A6089" stroke-width="0.7" stroke-dasharray="18 4 3 4"/><circle cx="689.6" cy="103" r="12" fill="#F4F4F2" stroke="#4A6089" stroke-width="1"/><text x="689.6" y="107.1" font-size="11.5" font-weight="600" text-anchor="middle" fill="#0F2344">5</text><line x1="834" y1="115" x2="834" y2="607.4" stroke="#4A6089" stroke-width="0.7" stroke-dasharray="18 4 3 4"/><circle cx="834" cy="103" r="12" fill="#F4F4F2" stroke="#4A6089" stroke-width="1"/><text x="834" y="107.1" font-size="11.5" font-weight="600" text-anchor="middle" fill="#0F2344">6</text><line x1="90" y1="175" x2="856" y2="175" stroke="#4A6089" stroke-width="0.7" stroke-dasharray="18 4 3 4"/><circle cx="78" cy="175" r="12" fill="#F4F4F2" stroke="#4A6089" stroke-width="1"/><text x="78" y="179.1" font-size="11.5" font-weight="600" text-anchor="middle" fill="#0F2344">A</text><line x1="90" y1="334.6" x2="856" y2="334.6" stroke="#4A6089" stroke-width="0.7" stroke-dasharray="18 4 3 4"/><circle cx="78" cy="334.6" r="12" fill="#F4F4F2" stroke="#4A6089" stroke-width="1"/><text x="78" y="338.7" font-size="11.5" font-weight="600" text-anchor="middle" fill="#0F2344">B</text><line x1="90" y1="425.8" x2="856" y2="425.8" stroke="#4A6089" stroke-width="0.7" stroke-dasharray="18 4 3 4"/><circle cx="78" cy="425.8" r="12" fill="#F4F4F2" stroke="#4A6089" stroke-width="1"/><text x="78" y="429.9" font-size="11.5" font-weight="600" text-anchor="middle" fill="#0F2344">C</text><line x1="90" y1="585.4" x2="856" y2="585.4" stroke="#4A6089" stroke-width="0.7" stroke-dasharray="18 4 3 4"/><circle cx="78" cy="585.4" r="12" fill="#F4F4F2" stroke="#4A6089" stroke-width="1"/><text x="78" y="589.5" font-size="11.5" font-weight="600" text-anchor="middle" fill="#0F2344">D</text><g stroke="#4A4A4A" stroke-width="0.7"><line x1="145" y1="151" x2="839" y2="151"/><line x1="146.8" y1="154.2" x2="153.2" y2="147.8" stroke-width="1.3"/><line x1="150" y1="146" x2="150" y2="156"/><line x1="291.2" y1="154.2" x2="297.6" y2="147.8" stroke-width="1.3"/><line x1="294.4" y1="146" x2="294.4" y2="156"/><line x1="435.6" y1="154.2" x2="442" y2="147.8" stroke-width="1.3"/><line x1="438.8" y1="146" x2="438.8" y2="156"/><line x1="542" y1="154.2" x2="548.4" y2="147.8" stroke-width="1.3"/><line x1="545.2" y1="146" x2="545.2" y2="156"/><line x1="686.4" y1="154.2" x2="692.8" y2="147.8" stroke-width="1.3"/><line x1="689.6" y1="146" x2="689.6" y2="156"/><line x1="830.8" y1="154.2" x2="837.2" y2="147.8" stroke-width="1.3"/><line x1="834" y1="146" x2="834" y2="156"/></g><text x="222.2" y="147" font-size="10.5" text-anchor="middle" fill="#4A4A4A" style="stroke:#F4F4F2;stroke-width:3px;paint-order:stroke;stroke-linejoin:round">3,80</text><text x="366.6" y="147" font-size="10.5" text-anchor="middle" fill="#4A4A4A" style="stroke:#F4F4F2;stroke-width:3px;paint-order:stroke;stroke-linejoin:round">3,80</text><text x="492" y="147" font-size="10.5" text-anchor="middle" fill="#4A4A4A" style="stroke:#F4F4F2;stroke-width:3px;paint-order:stroke;stroke-linejoin:round">2,80</text><text x="617.4" y="147" font-size="10.5" text-anchor="middle" fill="#4A4A4A" style="stroke:#F4F4F2;stroke-width:3px;paint-order:stroke;stroke-linejoin:round">3,80</text><text x="761.8" y="147" font-size="10.5" text-anchor="middle" fill="#4A4A4A" style="stroke:#F4F4F2;stroke-width:3px;paint-order:stroke;stroke-linejoin:round">3,80</text><g stroke="#4A4A4A" stroke-width="0.7"><line x1="145" y1="129" x2="839" y2="129"/><line x1="146.8" y1="132.2" x2="153.2" y2="125.8" stroke-width="1.3"/><line x1="150" y1="124" x2="150" y2="134"/><line x1="830.8" y1="132.2" x2="837.2" y2="125.8" stroke-width="1.3"/><line x1="834" y1="124" x2="834" y2="134"/></g><text x="492" y="125" font-size="10.5" text-anchor="middle" fill="#4A4A4A" style="stroke:#F4F4F2;stroke-width:3px;paint-order:stroke;stroke-linejoin:round">18,00</text><g stroke="#4A4A4A" stroke-width="0.7"><line x1="126" y1="170" x2="126" y2="590.4"/><line x1="122.8" y1="178.2" x2="129.2" y2="171.8" stroke-width="1.3"/><line x1="121" y1="175" x2="131" y2="175"/><line x1="122.8" y1="337.8" x2="129.2" y2="331.4" stroke-width="1.3"/><line x1="121" y1="334.6" x2="131" y2="334.6"/><line x1="122.8" y1="429" x2="129.2" y2="422.6" stroke-width="1.3"/><line x1="121" y1="425.8" x2="131" y2="425.8"/><line x1="122.8" y1="588.6" x2="129.2" y2="582.2" stroke-width="1.3"/><line x1="121" y1="585.4" x2="131" y2="585.4"/></g><text x="122" y="254.8" font-size="10.5" text-anchor="middle" fill="#4A4A4A" style="stroke:#F4F4F2;stroke-width:3px;paint-order:stroke;stroke-linejoin:round" transform="rotate(-90 122 254.8)">4,20</text><text x="122" y="380.2" font-size="10.5" text-anchor="middle" fill="#4A4A4A" style="stroke:#F4F4F2;stroke-width:3px;paint-order:stroke;stroke-linejoin:round" transform="rotate(-90 122 380.2)">2,40</text><text x="122" y="505.6" font-size="10.5" text-anchor="middle" fill="#4A4A4A" style="stroke:#F4F4F2;stroke-width:3px;paint-order:stroke;stroke-linejoin:round" transform="rotate(-90 122 505.6)">4,20</text><g stroke="#4A4A4A" stroke-width="0.7"><line x1="104" y1="170" x2="104" y2="590.4"/><line x1="100.8" y1="178.2" x2="107.2" y2="171.8" stroke-width="1.3"/><line x1="99" y1="175" x2="109" y2="175"/><line x1="100.8" y1="588.6" x2="107.2" y2="582.2" stroke-width="1.3"/><line x1="99" y1="585.4" x2="109" y2="585.4"/></g><text x="100" y="380.2" font-size="10.5" text-anchor="middle" fill="#4A4A4A" style="stroke:#F4F4F2;stroke-width:3px;paint-order:stroke;stroke-linejoin:round" transform="rotate(-90 100 380.2)">10,80</text><rect x="150" y="175" width="144.4" height="159.6" class="lj"/><rect x="294.4" y="175" width="144.4" height="159.6" class="lj"/><rect x="438.8" y="175" width="106.4" height="159.6" class="lj"/><rect x="545.2" y="175" width="144.4" height="159.6" class="lj"/><rect x="689.6" y="175" width="144.4" height="159.6" class="lj"/><rect x="150" y="334.6" width="144.4" height="91.2" class="lj"/><rect x="294.4" y="334.6" width="144.4" height="91.2" class="lj"/><rect x="545.2" y="334.6" width="144.4" height="91.2" class="lj"/><rect x="689.6" y="334.6" width="144.4" height="91.2" class="lj"/><rect x="150" y="425.8" width="144.4" height="159.6" class="lj"/><rect x="294.4" y="425.8" width="144.4" height="159.6" class="lj"/><rect x="438.8" y="425.8" width="106.4" height="159.6" class="lj"/><rect x="545.2" y="425.8" width="144.4" height="159.6" class="lj"/><rect x="689.6" y="425.8" width="144.4" height="159.6" class="lj"/><rect x="438.8" y="585.4" width="106.4" height="53.2" class="hl"/><path d="M441.7 337.5L542.4 423M542.4 337.5L441.7 423M438.8 585.4V638.6H545.2V585.4M444.5 585.4V632.9H539.5V585.4M150 172.2H834M150 177.9H834M150 331.8H834M150 337.5H834M150 423H834M150 428.7H834M150 582.6H834M150 588.3H834M147.2 175V585.4M152.9 175V585.4M291.5 175V585.4M297.3 175V585.4M436 175V585.4M441.7 175V585.4M542.4 175V585.4M548.1 175V585.4M686.8 175V585.4M692.4 175V585.4M831.2 175V585.4M836.9 175V585.4" class="vg1"/><rect x="138.6" y="171.2" width="22.8" height="7.6" class="pi"/><rect x="283" y="171.2" width="22.8" height="7.6" class="pi"/><rect x="427.4" y="171.2" width="22.8" height="7.6" class="pi"/><rect x="533.8" y="171.2" width="22.8" height="7.6" class="pi"/><rect x="678.2" y="171.2" width="22.8" height="7.6" class="pi"/><rect x="822.6" y="171.2" width="22.8" height="7.6" class="pi"/><rect x="146.2" y="323.2" width="7.6" height="22.8" class="pi"/><rect x="288.7" y="321.3" width="11.4" height="26.6" class="pi"/><rect x="433.1" y="321.3" width="11.4" height="26.6" class="pi"/><rect x="539.5" y="321.3" width="11.4" height="26.6" class="pi"/><rect x="683.9" y="321.3" width="11.4" height="26.6" class="pi"/><rect x="830.2" y="323.2" width="7.6" height="22.8" class="pi"/><rect x="146.2" y="414.4" width="7.6" height="22.8" class="pi"/><rect x="288.7" y="412.5" width="11.4" height="26.6" class="pi"/><rect x="433.1" y="412.5" width="11.4" height="26.6" class="pi"/><rect x="539.5" y="412.5" width="11.4" height="26.6" class="pi"/><rect x="683.9" y="412.5" width="11.4" height="26.6" class="pi"/><rect x="830.2" y="414.4" width="7.6" height="22.8" class="pi"/><rect x="138.6" y="581.6" width="22.8" height="7.6" class="pi"/><rect x="283" y="581.6" width="22.8" height="7.6" class="pi"/><rect x="427.4" y="581.6" width="22.8" height="7.6" class="pi"/><rect x="533.8" y="581.6" width="22.8" height="7.6" class="pi"/><rect x="678.2" y="581.6" width="22.8" height="7.6" class="pi"/><rect x="822.6" y="581.6" width="22.8" height="7.6" class="pi"/><text x="761.8" y="188.9" font-size="9" text-anchor="middle" fill="#0F2344">V1 (15x60)</text><text x="761.8" y="348.5" font-size="9" text-anchor="middle" fill="#0F2344">V2 (15x60)</text><text x="761.8" y="439.7" font-size="9" text-anchor="middle" fill="#0F2344">V3 (15x60)</text><text x="761.8" y="599.3" font-size="9" text-anchor="middle" fill="#0F2344">V4 (15x60)</text><text x="163.9" y="505.6" font-size="9" text-anchor="middle" fill="#0F2344" transform="rotate(-90 163.9 505.6)">V5 (15x55)</text><text x="308.3" y="505.6" font-size="9" text-anchor="middle" fill="#0F2344" transform="rotate(-90 308.3 505.6)">V6 (15x55)</text><text x="452.7" y="505.6" font-size="9" text-anchor="middle" fill="#0F2344" transform="rotate(-90 452.7 505.6)">V7 (15x55)</text><text x="559.1" y="505.6" font-size="9" text-anchor="middle" fill="#0F2344" transform="rotate(-90 559.1 505.6)">V8 (15x55)</text><text x="703.5" y="505.6" font-size="9" text-anchor="middle" fill="#0F2344" transform="rotate(-90 703.5 505.6)">V9 (15x55)</text><text x="847.9" y="505.6" font-size="9" text-anchor="middle" fill="#0F2344" transform="rotate(-90 847.9 505.6)">V10 (15x55)</text><text x="222.2" y="252.8" font-size="12" font-weight="700" text-anchor="middle" fill="#0F2344">L1</text><text x="222.2" y="265.8" font-size="9.5" text-anchor="middle" fill="#4A4A4A">h = 12</text><text x="366.6" y="252.8" font-size="12" font-weight="700" text-anchor="middle" fill="#0F2344">L2</text><text x="366.6" y="265.8" font-size="9.5" text-anchor="middle" fill="#4A4A4A">h = 12</text><text x="492" y="252.8" font-size="12" font-weight="700" text-anchor="middle" fill="#0F2344">L3</text><text x="492" y="265.8" font-size="9.5" text-anchor="middle" fill="#4A4A4A">h = 12</text><text x="617.4" y="252.8" font-size="12" font-weight="700" text-anchor="middle" fill="#0F2344">L4</text><text x="617.4" y="265.8" font-size="9.5" text-anchor="middle" fill="#4A4A4A">h = 12</text><text x="761.8" y="252.8" font-size="12" font-weight="700" text-anchor="middle" fill="#0F2344">L5</text><text x="761.8" y="265.8" font-size="9.5" text-anchor="middle" fill="#4A4A4A">h = 12</text><text x="222.2" y="378.2" font-size="12" font-weight="700" text-anchor="middle" fill="#0F2344">L6</text><text x="222.2" y="391.2" font-size="9.5" text-anchor="middle" fill="#4A4A4A">h = 10</text><text x="366.6" y="378.2" font-size="12" font-weight="700" text-anchor="middle" fill="#0F2344">L7</text><text x="366.6" y="391.2" font-size="9.5" text-anchor="middle" fill="#4A4A4A">h = 10</text><rect x="446.1" y="369.2" width="91.9" height="16" fill="#F4F4F2"/><text x="492" y="381.2" font-size="9.5" font-weight="700" text-anchor="middle" fill="#4A4A4A" letter-spacing="0.6">ELEV. / ESCADA</text><text x="617.4" y="378.2" font-size="12" font-weight="700" text-anchor="middle" fill="#0F2344">L8</text><text x="617.4" y="391.2" font-size="9.5" text-anchor="middle" fill="#4A4A4A">h = 10</text><text x="761.8" y="378.2" font-size="12" font-weight="700" text-anchor="middle" fill="#0F2344">L9</text><text x="761.8" y="391.2" font-size="9.5" text-anchor="middle" fill="#4A4A4A">h = 10</text><text x="222.2" y="503.6" font-size="12" font-weight="700" text-anchor="middle" fill="#0F2344">L10</text><text x="222.2" y="516.6" font-size="9.5" text-anchor="middle" fill="#4A4A4A">h = 12</text><text x="366.6" y="503.6" font-size="12" font-weight="700" text-anchor="middle" fill="#0F2344">L11</text><text x="366.6" y="516.6" font-size="9.5" text-anchor="middle" fill="#4A4A4A">h = 12</text><text x="492" y="503.6" font-size="12" font-weight="700" text-anchor="middle" fill="#0F2344">L12</text><text x="492" y="516.6" font-size="9.5" text-anchor="middle" fill="#4A4A4A">h = 12</text><text x="617.4" y="503.6" font-size="12" font-weight="700" text-anchor="middle" fill="#0F2344">L13</text><text x="617.4" y="516.6" font-size="9.5" text-anchor="middle" fill="#4A4A4A">h = 12</text><text x="761.8" y="503.6" font-size="12" font-weight="700" text-anchor="middle" fill="#0F2344">L14</text><text x="761.8" y="516.6" font-size="9.5" text-anchor="middle" fill="#4A4A4A">h = 12</text><text x="492" y="611" font-size="11" font-weight="700" text-anchor="middle" fill="#0F2344">L15</text><text x="492" y="622" font-size="8.5" text-anchor="middle" fill="#4A4A4A">h = 10 (−5)</text><text x="164.4" y="167.2" font-size="8.5" font-weight="600" fill="#0F2344">P1 60x20</text><text x="308.8" y="167.2" font-size="8.5" font-weight="600" fill="#0F2344">P2 60x20</text><text x="453.2" y="167.2" font-size="8.5" font-weight="600" fill="#0F2344">P3 60x20</text><text x="559.6" y="167.2" font-size="8.5" font-weight="600" fill="#0F2344">P4 60x20</text><text x="704" y="167.2" font-size="8.5" font-weight="600" fill="#0F2344">P5 60x20</text><text x="848.4" y="167.2" font-size="8.5" font-weight="600" fill="#0F2344">P6 60x20</text><text x="156.8" y="319.2" font-size="8.5" font-weight="600" fill="#0F2344">P7 20x60</text><text x="303.1" y="317.3" font-size="8.5" font-weight="600" fill="#0F2344">P8 30x70</text><text x="447.5" y="317.3" font-size="8.5" font-weight="600" fill="#0F2344">P9 30x70</text><text x="553.9" y="317.3" font-size="8.5" font-weight="600" fill="#0F2344">P10 30x70</text><text x="698.3" y="317.3" font-size="8.5" font-weight="600" fill="#0F2344">P11 30x70</text><text x="840.8" y="319.2" font-size="8.5" font-weight="600" fill="#0F2344">P12 20x60</text><text x="156.8" y="410.4" font-size="8.5" font-weight="600" fill="#0F2344">P13 20x60</text><text x="303.1" y="408.5" font-size="8.5" font-weight="600" fill="#0F2344">P14 30x70</text><text x="447.5" y="408.5" font-size="8.5" font-weight="600" fill="#0F2344">P15 30x70</text><text x="553.9" y="408.5" font-size="8.5" font-weight="600" fill="#0F2344">P16 30x70</text><text x="698.3" y="408.5" font-size="8.5" font-weight="600" fill="#0F2344">P17 30x70</text><text x="840.8" y="410.4" font-size="8.5" font-weight="600" fill="#0F2344">P18 20x60</text><text x="164.4" y="577.6" font-size="8.5" font-weight="600" fill="#0F2344">P19 60x20</text><text x="308.8" y="577.6" font-size="8.5" font-weight="600" fill="#0F2344">P20 60x20</text><text x="453.2" y="577.6" font-size="8.5" font-weight="600" fill="#0F2344">P21 60x20</text><text x="559.6" y="577.6" font-size="8.5" font-weight="600" fill="#0F2344">P22 60x20</text><text x="704" y="577.6" font-size="8.5" font-weight="600" fill="#0F2344">P23 60x20</text><text x="848.4" y="577.6" font-size="8.5" font-weight="600" fill="#0F2344">P24 60x20</text><g stroke="#0F2344" stroke-width="0.9" fill="none"><circle cx="1110" cy="110" r="22"/><polygon points="1110,91 1117,122.1 1110,115.5" fill="#0F2344"/><polygon points="1110,91 1103,122.1 1110,115.5"/><text x="1110" y="83" font-size="11" font-weight="700" text-anchor="middle" fill="#0F2344">N</text></g><rect x="900" y="175" width="250" height="187" fill="#fff" stroke="#0F2344" stroke-width="0.8"/><text x="1025" y="190" font-size="9.5" font-weight="700" text-anchor="middle" fill="#0F2344" letter-spacing="1">QUADRO DE PILARES</text><path d="M900 197H1150M900 212H1150M958 197V362M1020 197V362M1062 197V362" class="tb"/><text x="929" y="208" font-size="8.5" font-weight="700" text-anchor="middle" fill="#0F2344">PILAR</text><text x="989" y="208" font-size="8.5" font-weight="700" text-anchor="middle" fill="#0F2344">SEÇÃO</text><text x="1041" y="208" font-size="8.5" font-weight="700" text-anchor="middle" fill="#0F2344">fck</text><text x="1106" y="208" font-size="8.5" font-weight="700" text-anchor="middle" fill="#0F2344">CARGA (tf)</text><text x="929" y="223" font-size="8.5" font-weight="400" text-anchor="middle" fill="#4A4A4A">P1</text><text x="989" y="223" font-size="8.5" font-weight="400" text-anchor="middle" fill="#4A4A4A">60x20</text><text x="1041" y="223" font-size="8.5" font-weight="400" text-anchor="middle" fill="#4A4A4A">30</text><text x="1106" y="223" font-size="8.5" font-weight="400" text-anchor="middle" fill="#4A4A4A">64</text><text x="929" y="238" font-size="8.5" font-weight="400" text-anchor="middle" fill="#4A4A4A">P2</text><text x="989" y="238" font-size="8.5" font-weight="400" text-anchor="middle" fill="#4A4A4A">60x20</text><text x="1041" y="238" font-size="8.5" font-weight="400" text-anchor="middle" fill="#4A4A4A">30</text><text x="1106" y="238" font-size="8.5" font-weight="400" text-anchor="middle" fill="#4A4A4A">88</text><text x="929" y="253" font-size="8.5" font-weight="400" text-anchor="middle" fill="#4A4A4A">P3</text><text x="989" y="253" font-size="8.5" font-weight="400" text-anchor="middle" fill="#4A4A4A">60x20</text><text x="1041" y="253" font-size="8.5" font-weight="400" text-anchor="middle" fill="#4A4A4A">30</text><text x="1106" y="253" font-size="8.5" font-weight="400" text-anchor="middle" fill="#4A4A4A">71</text><text x="929" y="268" font-size="8.5" font-weight="400" text-anchor="middle" fill="#4A4A4A">P4</text><text x="989" y="268" font-size="8.5" font-weight="400" text-anchor="middle" fill="#4A4A4A">60x20</text><text x="1041" y="268" font-size="8.5" font-weight="400" text-anchor="middle" fill="#4A4A4A">30</text><text x="1106" y="268" font-size="8.5" font-weight="400" text-anchor="middle" fill="#4A4A4A">93</text><text x="929" y="283" font-size="8.5" font-weight="400" text-anchor="middle" fill="#4A4A4A">P5</text><text x="989" y="283" font-size="8.5" font-weight="400" text-anchor="middle" fill="#4A4A4A">60x20</text><text x="1041" y="283" font-size="8.5" font-weight="400" text-anchor="middle" fill="#4A4A4A">30</text><text x="1106" y="283" font-size="8.5" font-weight="400" text-anchor="middle" fill="#4A4A4A">58</text><text x="929" y="298" font-size="8.5" font-weight="400" text-anchor="middle" fill="#4A4A4A">P6</text><text x="989" y="298" font-size="8.5" font-weight="400" text-anchor="middle" fill="#4A4A4A">60x20</text><text x="1041" y="298" font-size="8.5" font-weight="400" text-anchor="middle" fill="#4A4A4A">30</text><text x="1106" y="298" font-size="8.5" font-weight="400" text-anchor="middle" fill="#4A4A4A">64</text><text x="929" y="313" font-size="8.5" font-weight="400" text-anchor="middle" fill="#4A4A4A">P7</text><text x="989" y="313" font-size="8.5" font-weight="400" text-anchor="middle" fill="#4A4A4A">20x60</text><text x="1041" y="313" font-size="8.5" font-weight="400" text-anchor="middle" fill="#4A4A4A">30</text><text x="1106" y="313" font-size="8.5" font-weight="400" text-anchor="middle" fill="#4A4A4A">71</text><text x="929" y="328" font-size="8.5" font-weight="400" text-anchor="middle" fill="#4A4A4A">P8</text><text x="989" y="328" font-size="8.5" font-weight="400" text-anchor="middle" fill="#4A4A4A">30x70</text><text x="1041" y="328" font-size="8.5" font-weight="400" text-anchor="middle" fill="#4A4A4A">35</text><text x="1106" y="328" font-size="8.5" font-weight="400" text-anchor="middle" fill="#4A4A4A">95</text><text x="929" y="343" font-size="8.5" font-weight="400" text-anchor="middle" fill="#4A4A4A">P9</text><text x="989" y="343" font-size="8.5" font-weight="400" text-anchor="middle" fill="#4A4A4A">30x70</text><text x="1041" y="343" font-size="8.5" font-weight="400" text-anchor="middle" fill="#4A4A4A">35</text><text x="1106" y="343" font-size="8.5" font-weight="400" text-anchor="middle" fill="#4A4A4A">78</text><text x="929" y="358" font-size="8.5" font-weight="400" text-anchor="middle" fill="#4A4A4A">...</text><text x="989" y="358" font-size="8.5" font-weight="400" text-anchor="middle" fill="#4A4A4A">...</text><text x="1041" y="358" font-size="8.5" font-weight="400" text-anchor="middle" fill="#4A4A4A">...</text><text x="1106" y="358" font-size="8.5" font-weight="400" text-anchor="middle" fill="#4A4A4A">...</text><rect x="900" y="530" width="250" height="101" fill="#fff" stroke="#0F2344" stroke-width="0.7"/><text x="910" y="547" font-size="10" font-weight="700" fill="#0F2344" letter-spacing="1">NOTAS</text><text x="910" y="564" font-size="9" fill="#4A4A4A">Concreto: fck = 30 MPa (lajes/vigas)</text><text x="910" y="579" font-size="9" fill="#4A4A4A">Aço CA-50 / CA-60</text><text x="910" y="594" font-size="9" fill="#4A4A4A">Cobrimento: 2,5 cm (lajes) · 3,0 cm (vigas)</text><text x="910" y="609" font-size="9" fill="#4A4A4A">Níveis: +3,20 a +15,20 (tipo)</text><text x="910" y="624" font-size="9" fill="#4A4A4A">Varanda: laje rebaixada −5 cm</text><text x="60" y="822" font-size="14" font-weight="700" fill="#0F2344" letter-spacing="0.4">PLANTA DE FORMAS — PAV. TIPO</text><line x1="60" y1="828" x2="315.2" y2="828" stroke="#0F2344" stroke-width="1.6"/><line x1="60" y1="831.5" x2="315.2" y2="831.5" stroke="#0F2344" stroke-width="0.6"/><text x="315.2" y="845" font-size="9.5" text-anchor="end" fill="#4A4A4A" letter-spacing="0.4">ESC. 1:100</text><rect x="18" y="18" width="1164" height="864" fill="none" stroke="#0F2344" stroke-width="1.1"/><g stroke="#0F2344" stroke-width="0.8"><line x1="600" y1="18" x2="600" y2="25"/><line x1="600" y1="882" x2="600" y2="875"/><line x1="18" y1="450" x2="25" y2="450"/><line x1="1182" y1="450" x2="1175" y2="450"/></g><rect x="826" y="796" width="356" height="86" fill="#F4F4F2" stroke="#0F2344" stroke-width="1.1"/><g stroke="#0F2344" stroke-width="0.6"><line x1="826" y1="829" x2="1182" y2="829"/><line x1="826" y1="858" x2="1182" y2="858"/><line x1="944" y1="858" x2="944" y2="882"/><line x1="1062" y1="858" x2="1062" y2="882"/></g><g transform="translate(831 801) scale(0.23)"><rect width="100" height="100" fill="#0F2344"/><g fill="none" stroke="#fff"><rect x="6" y="6" width="88" height="88" stroke-width="3"/><rect x="12" y="12" width="76" height="76" stroke-width="1.2"/></g><g fill="#fff"><polygon points="36.5,24 39,24 23.5,74 21,74"/><polygon points="37,24 40,24 55,74 46,74"/><rect x="28" y="55" width="16" height="2.5"/><rect x="17" y="73.5" width="12" height="2.5"/><rect x="43" y="73.5" width="15" height="2.5"/><rect x="60" y="26" width="8" height="50"/><rect x="56" y="24" width="16" height="2.5"/><rect x="56" y="73.5" width="6" height="2.5"/><rect x="60" y="72" width="24" height="4"/><rect x="81.5" y="65" width="2.5" height="11"/></g></g><text x="862" y="812" font-size="11.5" font-weight="700" fill="#0F2344" letter-spacing="1.1">ALBANO LUZ ENGENHARIA</text><text x="862" y="823.5" font-size="6.8" fill="#4A4A4A" letter-spacing="0.9">PROJETO ESTRUTURAL · CÁLCULO E DETALHAMENTO</text><text x="833" y="838" font-size="6.2" fill="#4A4A4A" letter-spacing="1">DESENHO</text><text x="833" y="852" font-size="11" font-weight="700" fill="#0F2344">FORMAS — PAV. TIPO (1º AO 5º)</text><text x="833" y="874" font-size="9.5" font-weight="600" fill="#0F2344">ESC. 1:100</text><text x="951" y="874" font-size="9.5" font-weight="600" fill="#0F2344">FOLHA 06/14</text><text x="1069" y="874" font-size="9.5" font-weight="600" fill="#0F2344">REV. 00</text></svg>
