<svg xmlns="http://www.w3.org/2000/svg" width="1200" height="900" viewBox="0 0 1200 900" font-family="Inter, Arial, Helvetica, sans-serif"><style>text{stroke:none}</style><rect width="1200" height="900" fill="#F4F4F2"/><polygon points="438.9,354 792.4,558.1 792.4,300.8 438.9,96.6" fill="#ECEBE7" stroke="#C4C8CF" stroke-width="0.8"/><polygon points="438.9,354 177.6,504.9 177.6,247.5 438.9,96.6" fill="#E6E5E1" stroke="#C4C8CF" stroke-width="0.8"/><polygon points="438.9,354 792.4,558.1 531.1,709 177.6,504.9" fill="#F9F8F6" fill-opacity="0.7" stroke="#C4C8CF" stroke-width="0.8"/><path d="M792.4 568.8L531.1 719.7L177.6 515.5" fill="none" stroke="#C4C8CF" stroke-width="0.8" stroke-dasharray="4 3"/><polygon points="350.5,267.5 375.1,281.7 375.1,215.1 350.5,200.9" fill="#F4F4F2" stroke="#9AA1AD" stroke-width="0.8"/><polygon points="405.8,263.9 375.1,281.7 375.1,215.1 405.8,197.4" fill="#F4F4F2" stroke="#9AA1AD" stroke-width="0.8"/><polygon points="381.2,183.2 405.8,197.4 375.1,215.1 350.5,200.9" fill="#F4F4F2" stroke="#9AA1AD" stroke-width="0.8"/><polygon points="546.5,392.2 584.9,414.4 584.9,402.8 546.5,380.6" fill="#fff" stroke="#9AA1AD" stroke-width="0.8"/><polygon points="619.5,394.4 584.9,414.4 584.9,402.8 619.5,382.8" fill="#fff" stroke="#9AA1AD" stroke-width="0.8"/><polygon points="581.1,360.7 619.5,382.8 584.9,402.8 546.5,380.6" fill="#fff" stroke="#9AA1AD" stroke-width="0.8"/><polygon points="608,513.8 638.7,531.5 638.7,494.2 608,476.5" fill="#fff" stroke="#9AA1AD" stroke-width="0.8"/><polygon points="692.5,500.4 638.7,531.5 638.7,494.2 692.5,463.2" fill="#fff" stroke="#9AA1AD" stroke-width="0.8"/><polygon points="661.8,445.4 692.5,463.2 638.7,494.2 608,476.5" fill="#fff" stroke="#9AA1AD" stroke-width="0.8"/><polygon points="246.7,389.5 292.9,416.1 292.9,411.7 246.7,385.1" fill="#fff" stroke="#9AA1AD" stroke-width="0.8"/><polygon points="369.7,371.8 292.9,416.1 292.9,411.7 369.7,367.3" fill="#fff" stroke="#9AA1AD" stroke-width="0.8"/><polygon points="323.6,340.7 369.7,367.3 292.9,411.7 246.7,385.1" fill="#fff" stroke="#9AA1AD" stroke-width="0.8"/><polygon points="461.9,385 531.1,424.9 454.3,469.3 385.1,429.3" fill="none" stroke="#9AA1AD" stroke-width="0.8" stroke-dasharray="4 3"/><path d="M454.3 429.4L454.3 447.2L515.7 482.7" fill="none" stroke="#4A4A4A" stroke-width="3" stroke-linecap="round" stroke-linejoin="round"/><path d="M581.1 394.4L581.1 476L542.6 498.2L515.7 482.7" fill="none" stroke="#4A4A4A" stroke-width="3" stroke-linecap="round" stroke-linejoin="round"/><path d="M515.7 482.7L442.7 529.3L546.5 591.9" fill="none" stroke="#4A4A4A" stroke-width="3.4" stroke-linecap="round" stroke-linejoin="round"/><path d="M642.6 511.5L642.6 538.2L431.2 665.5" fill="none" stroke="#4A4A4A" stroke-width="4.6" stroke-linecap="round" stroke-linejoin="round"/><path d="M308.2 380.6L308.2 473.8L239 518.2L216 535.9L415.8 655.8" fill="none" stroke="#4A4A4A" stroke-width="3.4" stroke-linecap="round" stroke-linejoin="round"/><polygon points="515.7,469.4 538.8,482.7 515.7,496 492.7,482.7" fill="#fff" stroke="#4A4A4A" stroke-width="1.2"/><polygon points="396.6,693.5 427.4,711.2 427.4,684.6 396.6,666.8" fill="#fff" stroke="#9AA1AD" stroke-width="0.8"/><polygon points="458.1,693.5 427.4,711.2 427.4,684.6 458.1,666.8" fill="#fff" stroke="#9AA1AD" stroke-width="0.8"/><polygon points="427.4,649.1 458.1,666.8 427.4,684.6 396.6,666.8" fill="#fff" stroke="#9AA1AD" stroke-width="0.8"/><circle cx="454.3" cy="429.4" r="5" fill="#fff" stroke="#4A4A4A" stroke-width="1.3"/><path d="M438.9 98.4L438.9 169.4L667.9 301.6" fill="none" stroke="#0F2344" stroke-width="2.8" stroke-linecap="round" stroke-linejoin="round"/><path d="M438.9 169.4L294.4 252.8" fill="none" stroke="#0F2344" stroke-width="2.8" stroke-linecap="round" stroke-linejoin="round"/><path d="M498.8 204L498.8 301.6" fill="none" stroke="#0F2344" stroke-width="2.4" stroke-linecap="round" stroke-linejoin="round"/><path d="M583.4 252.8L583.4 394.8L569.5 402.8" fill="none" stroke="#0F2344" stroke-width="2.4" stroke-linecap="round" stroke-linejoin="round"/><path d="M667.9 301.6L667.9 470.3L654.1 478.3" fill="none" stroke="#0F2344" stroke-width="2.4" stroke-linecap="round" stroke-linejoin="round"/><path d="M294.4 252.8L294.4 350.5L308.2 358.4" fill="none" stroke="#0F2344" stroke-width="2.4" stroke-linecap="round" stroke-linejoin="round"/><path d="M375.1 206.2L375.1 197.4" fill="none" stroke="#0F2344" stroke-width="2.2" stroke-linecap="round" stroke-linejoin="round"/><path d="M381.2 200.9L381.2 183.2L434.3 152.5L583.4 238.6" fill="none" stroke="#A4483A" stroke-width="2.6" stroke-linecap="round" stroke-linejoin="round"/><path d="M381.2 183.2L289.8 236L289.8 360.2L297.5 364.7" fill="none" stroke="#A4483A" stroke-width="2.4" stroke-linecap="round" stroke-linejoin="round"/><path d="M498.8 189.8L498.8 314.1" fill="none" stroke="#A4483A" stroke-width="2.4" stroke-linecap="round" stroke-linejoin="round"/><path d="M583.4 238.6L583.4 407.3L577.2 410.8" fill="none" stroke="#A4483A" stroke-width="2.4" stroke-linecap="round" stroke-linejoin="round"/><path d="M504.2 304.7L504.2 220.4L478.9 235.1" fill="none" stroke="#6B7078" stroke-width="2.2" stroke-linecap="round" stroke-linejoin="round"/><ellipse cx="478.9" cy="239.1" rx="9" ry="4" fill="#fff" stroke="#6B7078" stroke-width="1.3"/><circle cx="438.9" cy="169.4" r="2.8" fill="#0F2344"/><circle cx="498.8" cy="204" r="2.8" fill="#0F2344"/><circle cx="583.4" cy="252.8" r="2.8" fill="#0F2344"/><circle cx="375.1" cy="206.2" r="2.8" fill="#0F2344"/><circle cx="381.2" cy="183.2" r="2.8" fill="#A4483A"/><circle cx="498.8" cy="189.8" r="2.8" fill="#A4483A"/><circle cx="515.7" cy="482.7" r="2.8" fill="#4A4A4A"/><circle cx="546.5" cy="591.9" r="2.8" fill="#4A4A4A"/><polygon points="468.1,186.3 471.2,195 477.2,184.6" fill="#fff" stroke="#0F2344" stroke-width="1.2"/><polygon points="468.1,186.3 459,188 465,177.6" fill="#fff" stroke="#0F2344" stroke-width="1.2"/><polygon points="409.7,186.3 400.6,184.6 406.6,195" fill="#fff" stroke="#0F2344" stroke-width="1.2"/><polygon points="409.7,186.3 412.7,177.6 418.7,188" fill="#fff" stroke="#0F2344" stroke-width="1.2"/><polygon points="498.8,301.6 504.8,294.6 492.8,294.6" fill="#fff" stroke="#0F2344" stroke-width="1.2"/><polygon points="498.8,301.6 504.8,308.6 492.8,308.6" fill="#fff" stroke="#0F2344" stroke-width="1.2"/><line x1="498.8" y1="301.6" x2="509.8" y2="301.6" stroke="#0F2344" stroke-width="1.2"/><circle cx="511.8" cy="301.6" r="2.5" fill="#0F2344"/><polygon points="498.8,314.1 504.8,307.1 492.8,307.1" fill="#fff" stroke="#A4483A" stroke-width="1.2"/><polygon points="498.8,314.1 504.8,321.1 492.8,321.1" fill="#fff" stroke="#A4483A" stroke-width="1.2"/><line x1="498.8" y1="314.1" x2="509.8" y2="314.1" stroke="#A4483A" stroke-width="1.2"/><circle cx="511.8" cy="314.1" r="2.5" fill="#A4483A"/><polygon points="461.2,168.1 464.2,176.8 470.2,166.4" fill="#fff" stroke="#A4483A" stroke-width="1.2"/><polygon points="461.2,168.1 452.1,169.8 458.1,159.4" fill="#fff" stroke="#A4483A" stroke-width="1.2"/><text x="446.9" y="96.4" font-size="9.5" font-weight="600" fill="#0F2344" style="stroke:#F4F4F2;stroke-width:3px;paint-order:stroke;stroke-linejoin:round">AF — COLUNA Ø 32</text><text x="629.5" y="295.4" font-size="9.5" font-weight="600" text-anchor="middle" fill="#0F2344" style="stroke:#F4F4F2;stroke-width:3px;paint-order:stroke;stroke-linejoin:round">AF Ø 25</text><text x="541.9" y="204.7" font-size="9.5" font-weight="600" text-anchor="middle" fill="#A4483A" style="stroke:#F4F4F2;stroke-width:3px;paint-order:stroke;stroke-linejoin:round">AQ Ø 22</text><text x="330.5" y="220.2" font-size="9.5" font-weight="600" text-anchor="end" fill="#0F2344" style="stroke:#F4F4F2;stroke-width:3px;paint-order:stroke;stroke-linejoin:round">Ø 25</text><text x="482.8" y="305.6" font-size="9.5" font-weight="600" text-anchor="end" fill="#0F2344" style="stroke:#F4F4F2;stroke-width:3px;paint-order:stroke;stroke-linejoin:round">RP</text><text x="492.9" y="243.1" font-size="9.5" font-weight="700" fill="#0F2344" style="stroke:#F4F4F2;stroke-width:3px;paint-order:stroke;stroke-linejoin:round">CH</text><text x="581.5" y="412.8" font-size="9.5" font-weight="600" fill="#0F2344" style="stroke:#F4F4F2;stroke-width:3px;paint-order:stroke;stroke-linejoin:round">LV · Ø 20</text><text x="666.1" y="488.3" font-size="9.5" font-weight="600" fill="#0F2344" style="stroke:#F4F4F2;stroke-width:3px;paint-order:stroke;stroke-linejoin:round">VS · Ø 20</text><text x="320.2" y="370.4" font-size="9.5" font-weight="600" fill="#0F2344" style="stroke:#F4F4F2;stroke-width:3px;paint-order:stroke;stroke-linejoin:round">PIA · Ø 20</text><text x="400.5" y="282.4" font-size="8.5" font-weight="600" fill="#4A4A4A" style="stroke:#F4F4F2;stroke-width:3px;paint-order:stroke;stroke-linejoin:round">AQUECEDOR</text><text x="472.1" y="204.3" font-size="8.5" font-weight="600" text-anchor="middle" fill="#0F2344" style="stroke:#F4F4F2;stroke-width:3px;paint-order:stroke;stroke-linejoin:round">RG</text><text x="444.3" y="443.4" font-size="9.5" font-weight="600" text-anchor="end" fill="#4A4A4A" style="stroke:#F4F4F2;stroke-width:3px;paint-order:stroke;stroke-linejoin:round">RS</text><text x="525.7" y="496.7" font-size="9.5" font-weight="600" fill="#4A4A4A" style="stroke:#F4F4F2;stroke-width:3px;paint-order:stroke;stroke-linejoin:round">CS</text><text x="569.9" y="503.1" font-size="8.5" font-weight="600" fill="#4A4A4A" style="stroke:#F4F4F2;stroke-width:3px;paint-order:stroke;stroke-linejoin:round">Ø 40</text><text x="492.7" y="575.9" font-size="8.5" font-weight="600" text-anchor="middle" fill="#4A4A4A" style="stroke:#F4F4F2;stroke-width:3px;paint-order:stroke;stroke-linejoin:round">Ø 50</text><text x="510.4" y="636.9" font-size="9.5" font-weight="600" fill="#4A4A4A" style="stroke:#F4F4F2;stroke-width:3px;paint-order:stroke;stroke-linejoin:round">Ø 100</text><text x="315.9" y="609.6" font-size="8.5" font-weight="600" text-anchor="middle" fill="#4A4A4A" style="stroke:#F4F4F2;stroke-width:3px;paint-order:stroke;stroke-linejoin:round">Ø 50</text><text x="443.4" y="711.5" font-size="9.5" font-weight="600" fill="#4A4A4A" style="stroke:#F4F4F2;stroke-width:3px;paint-order:stroke;stroke-linejoin:round">CI — PARA REDE</text><text x="204" y="549.9" font-size="9.5" font-weight="600" text-anchor="end" fill="#4A4A4A" style="stroke:#F4F4F2;stroke-width:3px;paint-order:stroke;stroke-linejoin:round">CG</text><line x1="792.4" y1="336.3" x2="832.4" y2="336.3" stroke="#4A4A4A" stroke-width="0.6" stroke-dasharray="3 2"/><text x="836.4" y="339.8" font-size="9" fill="#4A4A4A">+2,50</text><line x1="792.4" y1="362.9" x2="832.4" y2="362.9" stroke="#4A4A4A" stroke-width="0.6" stroke-dasharray="3 2"/><text x="836.4" y="366.4" font-size="9" fill="#4A4A4A">+2,20</text><line x1="792.4" y1="460.5" x2="832.4" y2="460.5" stroke="#4A4A4A" stroke-width="0.6" stroke-dasharray="3 2"/><text x="836.4" y="464" font-size="9" fill="#4A4A4A">+1,10</text><line x1="792.4" y1="504.9" x2="832.4" y2="504.9" stroke="#4A4A4A" stroke-width="0.6" stroke-dasharray="3 2"/><text x="836.4" y="508.4" font-size="9" fill="#4A4A4A">+0,60</text><rect x="930" y="120" width="240" height="162" fill="#fff" stroke="#0F2344" stroke-width="0.8"/><text x="942" y="139" font-size="10" font-weight="700" fill="#0F2344" letter-spacing="1.2">LEGENDA</text><line x1="930" y1="147" x2="1170" y2="147" stroke="#0F2344" stroke-width="0.5"/><line x1="940" y1="160" x2="972" y2="160" stroke="#0F2344" stroke-width="2.8"/><text x="980" y="163.5" font-size="9" fill="#4A4A4A">AF — água fria (PVC)</text><line x1="940" y1="182" x2="972" y2="182" stroke="#A4483A" stroke-width="2.6"/><text x="980" y="185.5" font-size="9" fill="#4A4A4A">AQ — água quente (PPR)</text><line x1="940" y1="204" x2="972" y2="204" stroke="#4A4A4A" stroke-width="3.6"/><text x="980" y="207.5" font-size="9" fill="#4A4A4A">ESG — esgoto (PVC)</text><polygon points="956,226 949,220 949,232" fill="#fff" stroke="#0F2344" stroke-width="1.2"/><polygon points="956,226 963,220 963,232" fill="#fff" stroke="#0F2344" stroke-width="1.2"/><text x="980" y="229.5" font-size="9" fill="#4A4A4A">RG — registro de gaveta</text><polygon points="956,248 949,242 949,254" fill="#fff" stroke="#0F2344" stroke-width="1.2"/><polygon points="956,248 963,242 963,254" fill="#fff" stroke="#0F2344" stroke-width="1.2"/><line x1="956" y1="248" x2="956" y2="238" stroke="#0F2344" stroke-width="1.2"/><circle cx="956" cy="236" r="2.5" fill="#0F2344"/><text x="980" y="251.5" font-size="9" fill="#4A4A4A">RP — registro de pressão</text><circle cx="956" cy="270" r="5" fill="#fff" stroke="#4A4A4A" stroke-width="1.3"/><text x="980" y="273.5" font-size="9" fill="#4A4A4A">RS — ralo sifonado</text><rect x="930" y="330" width="240" height="116" fill="#fff" stroke="#0F2344" stroke-width="0.7"/><text x="940" y="347" font-size="10" font-weight="700" fill="#0F2344" letter-spacing="1">NOTAS</text><text x="940" y="364" font-size="9" fill="#4A4A4A">Diâmetros em milímetros</text><text x="940" y="379" font-size="9" fill="#4A4A4A">Cotas de altura a partir do piso</text><text x="940" y="394" font-size="9" fill="#4A4A4A">Esgoto com caimento mínimo de 1%</text><text x="940" y="409" font-size="9" fill="#4A4A4A">CS — caixa sifonada 150 mm</text><text x="940" y="424" font-size="9" fill="#4A4A4A">CG — caixa de gordura</text><text x="940" y="439" font-size="9" fill="#4A4A4A">CI — caixa de inspeção</text><text x="60" y="822" font-size="14" font-weight="700" fill="#0F2344" letter-spacing="0.4">ISOMÉTRICO — ÁREA MOLHADA</text><line x1="60" y1="828" x2="303.4" y2="828" stroke="#0F2344" stroke-width="1.6"/><line x1="60" y1="831.5" x2="303.4" y2="831.5" stroke="#0F2344" stroke-width="0.6"/><text x="303.4" y="845" font-size="9.5" text-anchor="end" fill="#4A4A4A" letter-spacing="0.4">SEM ESCALA</text><rect x="18" y="18" width="1164" height="864" fill="none" stroke="#0F2344" stroke-width="1.1"/><g stroke="#0F2344" stroke-width="0.8"><line x1="600" y1="18" x2="600" y2="25"/><line x1="600" y1="882" x2="600" y2="875"/><line x1="18" y1="450" x2="25" y2="450"/><line x1="1182" y1="450" x2="1175" y2="450"/></g><rect x="826" y="796" width="356" height="86" fill="#F4F4F2" stroke="#0F2344" stroke-width="1.1"/><g stroke="#0F2344" stroke-width="0.6"><line x1="826" y1="829" x2="1182" y2="829"/><line x1="826" y1="858" x2="1182" y2="858"/><line x1="944" y1="858" x2="944" y2="882"/><line x1="1062" y1="858" x2="1062" y2="882"/></g><g transform="translate(831 801) scale(0.23)"><rect width="100" height="100" fill="#0F2344"/><g fill="none" stroke="#fff"><rect x="6" y="6" width="88" height="88" stroke-width="3"/><rect x="12" y="12" width="76" height="76" stroke-width="1.2"/></g><g fill="#fff"><polygon points="36.5,24 39,24 23.5,74 21,74"/><polygon points="37,24 40,24 55,74 46,74"/><rect x="28" y="55" width="16" height="2.5"/><rect x="17" y="73.5" width="12" height="2.5"/><rect x="43" y="73.5" width="15" height="2.5"/><rect x="60" y="26" width="8" height="50"/><rect x="56" y="24" width="16" height="2.5"/><rect x="56" y="73.5" width="6" height="2.5"/><rect x="60" y="72" width="24" height="4"/><rect x="81.5" y="65" width="2.5" height="11"/></g></g><text x="862" y="812" font-size="11.5" font-weight="700" fill="#0F2344" letter-spacing="1.1">ALBANO LUZ ENGENHARIA</text><text x="862" y="823.5" font-size="6.8" fill="#4A4A4A" letter-spacing="0.9">PROJETO ESTRUTURAL · CÁLCULO E DETALHAMENTO</text><text x="833" y="838" font-size="6.2" fill="#4A4A4A" letter-spacing="1">DESENHO</text><text x="833" y="852" font-size="11" font-weight="700" fill="#0F2344">HIDROSSANITÁRIO — ISOMÉTRICO</text><text x="833" y="874" font-size="9.5" font-weight="600" fill="#0F2344">SEM ESCALA</text><text x="951" y="874" font-size="9.5" font-weight="600" fill="#0F2344">FOLHA 02/04</text><text x="1069" y="874" font-size="9.5" font-weight="600" fill="#0F2344">REV. 00</text></svg>
