<svg xmlns="http://www.w3.org/2000/svg" width="1200" height="900" viewBox="0 0 1200 900" font-family="Inter, Arial, Helvetica, sans-serif"><style>text{stroke:none}.t{fill:#30435F}.l{fill:#223554}.r{fill:#182C4C}.tL{fill:#2B3E5B}.lL{fill:#253857}.rL{fill:#1C3050}.t,.l,.r,.tL,.lL,.rL{stroke:#fff;stroke-opacity:.85;stroke-width:1;stroke-linejoin:round}.rb{fill:none;stroke:#fff;stroke-opacity:.9;stroke-width:1.1;stroke-linecap:round}.gh{fill:none;stroke:#A9B6CD;stroke-opacity:.55;stroke-width:.8;stroke-dasharray:5 4}.ax{fill:none;stroke:#A9B6CD;stroke-opacity:.6;stroke-width:.7;stroke-dasharray:16 4 3 4}.dm{fill:none;stroke:#A9B6CD;stroke-width:.7}.tk{fill:none;stroke:#A9B6CD;stroke-width:1.4}.fd{fill:none;stroke:#A9B6CD;stroke-opacity:.45;stroke-width:.8;stroke-dasharray:4 3}.ex{fill:none;stroke:#fff;stroke-opacity:.7;stroke-width:1;stroke-dasharray:7 4}.exh{fill:none;stroke:#fff;stroke-opacity:.3;stroke-width:.8;stroke-dasharray:3 4}.eF{fill:#fff;fill-opacity:.035}.sc{fill:none;stroke:#A9B6CD;stroke-opacity:.6;stroke-width:.75}</style><defs><pattern id="bpg" width="100" height="100" patternUnits="userSpaceOnUse"><path d="M20 0V100M40 0V100M60 0V100M80 0V100M0 20H100M0 40H100M0 60H100M0 80H100" stroke="#fff" stroke-opacity=".035"/><path d="M0 0V100M0 0H100" stroke="#fff" stroke-opacity=".075"/></pattern></defs><rect width="1200" height="900" fill="#0F2344"/><rect width="1200" height="900" fill="url(#bpg)"/><path d="M612.8 336L202.4 572.9M731.9 404.7L321.5 641.7M844.7 469.8L434.3 706.8M957.5 535L547 771.9M537.6 336L1026.4 618.2M404.5 412.9L893.2 695M271.3 489.7L760.1 771.9" class="ax"/><ellipse cx="185.2" cy="582.9" rx="24.4" ry="14.1" fill="#0F2344" stroke="#A9B6CD" stroke-width="1"/><text x="0" y="4.3" font-size="12" font-weight="600" text-anchor="middle" fill="#FFFFFF" transform="matrix(0.866 0.5 -0.866 0.5 185.2 582.9)">1</text><ellipse cx="304.2" cy="651.6" rx="24.4" ry="14.1" fill="#0F2344" stroke="#A9B6CD" stroke-width="1"/><text x="0" y="4.3" font-size="12" font-weight="600" text-anchor="middle" fill="#FFFFFF" transform="matrix(0.866 0.5 -0.866 0.5 304.2 651.6)">2</text><ellipse cx="417" cy="716.7" rx="24.4" ry="14.1" fill="#0F2344" stroke="#A9B6CD" stroke-width="1"/><text x="0" y="4.3" font-size="12" font-weight="600" text-anchor="middle" fill="#FFFFFF" transform="matrix(0.866 0.5 -0.866 0.5 417 716.7)">3</text><ellipse cx="529.8" cy="781.9" rx="24.4" ry="14.1" fill="#0F2344" stroke="#A9B6CD" stroke-width="1"/><text x="0" y="4.3" font-size="12" font-weight="600" text-anchor="middle" fill="#FFFFFF" transform="matrix(0.866 0.5 -0.866 0.5 529.8 781.9)">4</text><ellipse cx="1043.6" cy="628.1" rx="24.4" ry="14.1" fill="#0F2344" stroke="#A9B6CD" stroke-width="1"/><text x="0" y="4.3" font-size="12" font-weight="600" text-anchor="middle" fill="#FFFFFF" transform="matrix(0.866 -0.5 0.866 0.5 1043.6 628.1)">A</text><ellipse cx="910.5" cy="705" rx="24.4" ry="14.1" fill="#0F2344" stroke="#A9B6CD" stroke-width="1"/><text x="0" y="4.3" font-size="12" font-weight="600" text-anchor="middle" fill="#FFFFFF" transform="matrix(0.866 -0.5 0.866 0.5 910.5 705)">B</text><ellipse cx="777.3" cy="781.9" rx="24.4" ry="14.1" fill="#0F2344" stroke="#A9B6CD" stroke-width="1"/><text x="0" y="4.3" font-size="12" font-weight="600" text-anchor="middle" fill="#FFFFFF" transform="matrix(0.866 -0.5 0.866 0.5 777.3 781.9)">C</text><path d="M252.5 533.2L616 743M296.4 518.7L252.5 544M415.5 587.4L371.6 612.7M528.2 652.5L484.4 677.9M641 717.6L597.2 743" class="dm"/><path d="M250.7 538.6L273.2 538.6M369.7 607.3L392.3 607.3M482.5 672.4L505.1 672.4M595.3 737.5L617.8 737.5" class="tk"/><text x="0" y="0" font-size="11" text-anchor="middle" fill="#A9B6CD" transform="matrix(0.866 0.5 -0.866 0.5 327.7 569.3)">3,80</text><text x="0" y="0" font-size="11" text-anchor="middle" fill="#A9B6CD" transform="matrix(0.866 0.5 -0.866 0.5 443.7 636.3)">3,60</text><text x="0" y="0" font-size="11" text-anchor="middle" fill="#A9B6CD" transform="matrix(0.866 0.5 -0.866 0.5 556.4 701.4)">3,60</text><path d="M976.2 578.4L691.2 743M932.4 563.9L976.2 589.2M799.2 640.8L843.1 666.1M666.1 717.6L710 743" class="dm"/><path d="M955.6 583.8L978.1 583.8M822.4 660.7L845 660.7M689.3 737.5L711.8 737.5" class="tk"/><text x="0" y="0" font-size="11" text-anchor="middle" fill="#A9B6CD" transform="matrix(0.866 -0.5 0.866 0.5 894 618.6)">4,25</text><text x="0" y="0" font-size="11" text-anchor="middle" fill="#A9B6CD" transform="matrix(0.866 -0.5 0.866 0.5 760.9 695.5)">4,25</text><path d="M299.5 511.4L653.6 715.8L653.6 607.3L299.5 402.9Z" class="eF"/><path d="M929.3 556.7L653.6 715.8L653.6 607.3L929.3 448.1Z" class="eF"/><path d="M575.2 352.3L929.3 556.7M575.2 352.3L299.5 511.4M575.2 352.3L575.2 243.7" class="exh"/><path d="M929.3 556.7L653.6 715.8L299.5 511.4M929.3 556.7L929.3 448.1M653.6 715.8L653.6 607.3M299.5 511.4L299.5 402.9M575.2 243.7L929.3 448.1L653.6 607.3L299.5 402.9ZM335.6 496.1L385.7 525L385.7 481.6L335.6 452.7ZM442.1 593.7L473.4 611.8L473.4 535.9L442.1 517.8ZM504.7 593.7L605 651.6L605 608.2L504.7 550.3ZM887 544.9L830.6 577.5L830.6 534.1L887 501.5ZM767.9 613.6L705.3 649.8L705.3 606.4L767.9 570.2Z" class="ex"/><path class="l" d="M569 249.2L919.9 451.8L919.9 442.7L569 240.1Z"/><path class="r" d="M926.1 448.1L919.9 451.8L919.9 442.7L926.1 439.1Z"/><path class="t" d="M575.2 236.5L926.1 439.1L919.9 442.7L569 240.1Z"/><path class="l" d="M435.8 326L786.7 528.6L786.7 519.6L435.8 317Z"/><path class="r" d="M793 525L786.7 528.6L786.7 519.6L793 516Z"/><path class="t" d="M442.1 313.4L793 516L786.7 519.6L435.8 317Z"/><path class="l" d="M302.7 402.9L653.6 605.5L653.6 596.5L302.7 393.9Z"/><path class="r" d="M659.8 601.9L653.6 605.5L653.6 596.5L659.8 592.8Z"/><path class="t" d="M308.9 390.3L659.8 592.8L653.6 596.5L302.7 393.9Z"/><path class="l" d="M565.8 249.2L575.2 254.6L575.2 150.4L565.8 145Z"/><path class="r" d="M584.6 249.2L575.2 254.6L575.2 150.4L584.6 145Z"/><path class="t" d="M575.2 139.6L584.6 145L575.2 150.4L565.8 145Z"/><path class="l" d="M577.4 162.9L687.1 226.2L687.1 212.5L577.4 149.1Z"/><path class="r" d="M692.1 223.3L687.1 226.2L687.1 212.5L692.1 209.6Z"/><path class="t" d="M582.4 146.3L692.1 209.6L687.1 212.5L577.4 149.1Z"/><path class="l" d="M444.3 231.4L449.3 234.3L449.3 220.6L444.3 217.7Z"/><path class="r" d="M573 162.9L449.3 234.3L449.3 220.6L573 149.1Z"/><path class="t" d="M568 146.3L573 149.1L449.3 220.6L444.3 217.7Z"/><path class="l" d="M684.9 317.9L694.3 323.3L694.3 219.1L684.9 213.7Z"/><path class="r" d="M703.7 317.9L694.3 323.3L694.3 219.1L703.7 213.7Z"/><path class="t" d="M694.3 208.3L703.7 213.7L694.3 219.1L684.9 213.7Z"/><path class="l" d="M432.7 326L442.1 331.5L442.1 227.3L432.7 221.9Z"/><path class="r" d="M451.5 326L442.1 331.5L442.1 227.3L451.5 221.9Z"/><path class="t" d="M442.1 216.4L451.5 221.9L442.1 227.3L432.7 221.9Z"/><path class="l" d="M696.5 231.6L799.9 291.3L799.9 277.6L696.5 217.9Z"/><path class="r" d="M804.9 288.4L799.9 291.3L799.9 277.6L804.9 274.7Z"/><path class="t" d="M701.5 215L804.9 274.7L799.9 277.6L696.5 217.9Z"/><path class="l" d="M563.3 300.2L568.3 303.1L568.3 289.3L563.3 286.4Z"/><path class="r" d="M692.1 231.6L568.3 303.1L568.3 289.3L692.1 217.9Z"/><path class="t" d="M687.1 215L692.1 217.9L568.3 289.3L563.3 286.4Z"/><path class="l" d="M444.3 239.8L553.9 303.1L553.9 289.3L444.3 226Z"/><path class="r" d="M558.9 300.2L553.9 303.1L553.9 289.3L558.9 286.4Z"/><path class="t" d="M449.3 223.1L558.9 286.4L553.9 289.3L444.3 226Z"/><path class="l" d="M311.1 308.3L316.1 311.2L316.1 297.5L311.1 294.6Z"/><path class="r" d="M439.9 239.8L316.1 311.2L316.1 297.5L439.9 226Z"/><path class="t" d="M434.9 223.1L439.9 226L316.1 297.5L311.1 294.6Z"/><path class="l" d="M797.7 383L807.1 388.4L807.1 284.3L797.7 278.8Z"/><path class="r" d="M816.5 383L807.1 388.4L807.1 284.3L816.5 278.8Z"/><path class="t" d="M807.1 273.4L816.5 278.8L807.1 284.3L797.7 278.8Z"/><path class="l" d="M551.7 394.8L561.1 400.2L561.1 296L551.7 290.6Z"/><path class="r" d="M570.5 394.8L561.1 400.2L561.1 296L570.5 290.6Z"/><path class="t" d="M561.1 285.2L570.5 290.6L561.1 296L551.7 290.6Z"/><path class="l" d="M299.5 402.9L308.9 408.3L308.9 304.2L299.5 298.7Z"/><path class="r" d="M318.3 402.9L308.9 408.3L308.9 304.2L318.3 298.7Z"/><path class="t" d="M308.9 293.3L318.3 298.7L308.9 304.2L299.5 298.7Z"/><path class="l" d="M809.3 296.7L912.7 356.4L912.7 342.7L809.3 283Z"/><path class="r" d="M917.7 353.5L912.7 356.4L912.7 342.7L917.7 339.8Z"/><path class="t" d="M814.3 280.1L917.7 339.8L912.7 342.7L809.3 283Z"/><path class="l" d="M676.1 365.3L681.1 368.2L681.1 354.4L676.1 351.6Z"/><path class="r" d="M804.9 296.7L681.1 368.2L681.1 354.4L804.9 283Z"/><path class="t" d="M799.9 280.1L804.9 283L681.1 354.4L676.1 351.6Z"/><path class="l" d="M563.3 308.5L666.7 368.2L666.7 354.4L563.3 294.8Z"/><path class="r" d="M671.7 365.3L666.7 368.2L666.7 354.4L671.7 351.6Z"/><path class="t" d="M568.3 291.9L671.7 351.6L666.7 354.4L563.3 294.8Z"/><path class="l" d="M430.2 377.1L435.2 379.9L435.2 366.2L430.2 363.3Z"/><path class="r" d="M558.9 308.5L435.2 379.9L435.2 366.2L558.9 294.8Z"/><path class="t" d="M553.9 291.9L558.9 294.8L435.2 366.2L430.2 363.3Z"/><path class="l" d="M311.1 316.6L420.8 379.9L420.8 366.2L311.1 302.9Z"/><path class="r" d="M425.8 377.1L420.8 379.9L420.8 366.2L425.8 363.3Z"/><path class="t" d="M316.1 300L425.8 363.3L420.8 366.2L311.1 302.9Z"/><path class="l" d="M910.5 448.1L919.9 453.6L919.9 349.4L910.5 344Z"/><path class="r" d="M929.3 448.1L919.9 453.6L919.9 349.4L929.3 344Z"/><path class="t" d="M919.9 338.5L929.3 344L919.9 349.4L910.5 344Z"/><path class="l" d="M664.5 459.9L673.9 465.3L673.9 361.1L664.5 355.7Z"/><path class="r" d="M683.3 459.9L673.9 465.3L673.9 361.1L683.3 355.7Z"/><path class="t" d="M673.9 350.3L683.3 355.7L673.9 361.1L664.5 355.7Z"/><path class="l" d="M418.6 471.7L428 477.1L428 372.9L418.6 367.5Z"/><path class="r" d="M437.4 471.7L428 477.1L428 372.9L437.4 367.5Z"/><path class="t" d="M428 362L437.4 367.5L428 372.9L418.6 367.5Z"/><path class="l" d="M788.9 430.4L793.9 433.3L793.9 419.6L788.9 416.7Z"/><path class="r" d="M917.7 361.9L793.9 433.3L793.9 419.6L917.7 348.1Z"/><path class="t" d="M912.7 345.2L917.7 348.1L793.9 419.6L788.9 416.7Z"/><path class="l" d="M676.1 373.6L779.5 433.3L779.5 419.6L676.1 359.9Z"/><path class="r" d="M784.5 430.4L779.5 433.3L779.5 419.6L784.5 416.7Z"/><path class="t" d="M681.1 357L784.5 416.7L779.5 419.6L676.1 359.9Z"/><path class="l" d="M543 442.2L548 445.1L548 431.3L543 428.4Z"/><path class="r" d="M671.7 373.6L548 445.1L548 431.3L671.7 359.9Z"/><path class="t" d="M666.7 357L671.7 359.9L548 431.3L543 428.4Z"/><path class="l" d="M430.2 385.4L533.6 445.1L533.6 431.3L430.2 371.6Z"/><path class="r" d="M538.6 442.2L533.6 445.1L533.6 431.3L538.6 428.4Z"/><path class="t" d="M435.2 368.7L538.6 428.4L533.6 431.3L430.2 371.6Z"/><path class="l" d="M777.3 525L786.7 530.4L786.7 426.3L777.3 420.8Z"/><path class="r" d="M796.1 525L786.7 530.4L786.7 426.3L796.1 420.8Z"/><path class="t" d="M786.7 415.4L796.1 420.8L786.7 426.3L777.3 420.8Z"/><path class="l" d="M531.4 536.8L540.8 542.2L540.8 438L531.4 432.6Z"/><path class="r" d="M550.2 536.8L540.8 542.2L540.8 438L550.2 432.6Z"/><path class="t" d="M540.8 427.2L550.2 432.6L540.8 438L531.4 432.6Z"/><path class="l" d="M655.8 507.3L660.8 510.2L660.8 496.4L655.8 493.5Z"/><path class="r" d="M784.5 438.7L660.8 510.2L660.8 496.4L784.5 425Z"/><path class="t" d="M779.5 422.1L784.5 425L660.8 496.4L655.8 493.5Z"/><path class="l" d="M543 450.5L646.4 510.2L646.4 496.4L543 436.7Z"/><path class="r" d="M651.4 507.3L646.4 510.2L646.4 496.4L651.4 493.5Z"/><path class="t" d="M548 433.9L651.4 493.5L646.4 496.4L543 436.7Z"/><path class="l" d="M644.2 601.9L653.6 607.3L653.6 503.1L644.2 497.7Z"/><path class="r" d="M663 601.9L653.6 607.3L653.6 503.1L663 497.7Z"/><path class="t" d="M653.6 492.3L663 497.7L653.6 503.1L644.2 497.7Z"/><path class="lL" d="M299.5 298.7L653.6 503.1L653.6 498.8L299.5 294.4Z"/><path class="rL" d="M929.3 344L653.6 503.1L653.6 498.8L929.3 339.6Z"/><path class="tL" d="M575.2 135.2L929.3 339.6L653.6 498.8L299.5 294.4Z"/><g stroke="#FFFFFF" stroke-width="0.7" fill="none"><polyline points="861.9,541.3 971.9,451.3 1085.4,451.3" fill="none"/></g><circle cx="861.9" cy="541.3" r="2.2" fill="#FFFFFF"/><text x="974.9" y="446.3" font-size="11" font-weight="600" text-anchor="start" fill="#FFFFFF" letter-spacing="0.3">EXISTENTE</text><text x="974.9" y="463.3" font-size="9" text-anchor="start" fill="#A9B6CD" letter-spacing="0.3">TÉRREO EM ALVENARIA</text><g stroke="#FFFFFF" stroke-width="0.7" fill="none"><polyline points="747.5,236.1 917.5,170.1 1108.5,170.1" fill="none"/></g><circle cx="747.5" cy="236.1" r="2.2" fill="#FFFFFF"/><text x="920.5" y="165.1" font-size="11" font-weight="600" text-anchor="start" fill="#FFFFFF" letter-spacing="0.3">AMPLIAÇÃO</text><text x="920.5" y="182.1" font-size="9" text-anchor="start" fill="#A9B6CD" letter-spacing="0.3">NOVO PAVIMENTO EM CONCRETO ARMADO</text><line x1="295.5" y1="511.4" x2="285.5" y2="511.4" stroke="#A9B6CD" stroke-width="0.6" stroke-dasharray="2 2"/><g stroke="#FFFFFF" stroke-width="0.8" fill="none"><line x1="283.5" y1="511.4" x2="179.5" y2="511.4"/><polygon points="271.5,511.4 266.5,503.4 276.5,503.4"/><polygon points="271.5,511.4 266.5,503.4 271.5,503.4" fill="#FFFFFF" stroke="none"/></g><text x="262.5" y="507.9" font-size="11" font-weight="600" text-anchor="end" fill="#FFFFFF">+0,00</text><text x="262.5" y="522.4" font-size="8.5" text-anchor="end" fill="#FFFFFF" letter-spacing="0.5">TÉRREO</text><line x1="295.5" y1="402.9" x2="285.5" y2="402.9" stroke="#A9B6CD" stroke-width="0.6" stroke-dasharray="2 2"/><g stroke="#FFFFFF" stroke-width="0.8" fill="none"><line x1="283.5" y1="402.9" x2="179.5" y2="402.9"/><polygon points="271.5,402.9 266.5,394.9 276.5,394.9"/><polygon points="271.5,402.9 266.5,394.9 271.5,394.9" fill="#FFFFFF" stroke="none"/></g><text x="262.5" y="399.4" font-size="11" font-weight="600" text-anchor="end" fill="#FFFFFF">+3,00</text><text x="262.5" y="413.9" font-size="8.5" text-anchor="end" fill="#FFFFFF" letter-spacing="0.5">PAV. SUPERIOR</text><line x1="295.5" y1="294.4" x2="285.5" y2="294.4" stroke="#A9B6CD" stroke-width="0.6" stroke-dasharray="2 2"/><g stroke="#FFFFFF" stroke-width="0.8" fill="none"><line x1="283.5" y1="294.4" x2="179.5" y2="294.4"/><polygon points="271.5,294.4 266.5,286.4 276.5,286.4"/><polygon points="271.5,294.4 266.5,286.4 271.5,286.4" fill="#FFFFFF" stroke="none"/></g><text x="262.5" y="290.9" font-size="11" font-weight="600" text-anchor="end" fill="#FFFFFF">+6,00</text><text x="262.5" y="305.4" font-size="8.5" text-anchor="end" fill="#FFFFFF" letter-spacing="0.5">COBERTURA</text><text x="60" y="70" font-size="14" font-weight="700" fill="#FFFFFF" letter-spacing="0.4">ISOMÉTRICA — AMPLIAÇÃO</text><line x1="60" y1="76" x2="279.4" y2="76" stroke="#FFFFFF" stroke-width="1.6"/><line x1="60" y1="79.5" x2="279.4" y2="79.5" stroke="#FFFFFF" stroke-width="0.6"/><text x="279.4" y="93" font-size="9.5" text-anchor="end" fill="#A9B6CD" letter-spacing="0.4">SEM ESCALA</text><rect x="18" y="18" width="1164" height="864" fill="none" stroke="#FFFFFF" stroke-width="1.1"/><g stroke="#FFFFFF" stroke-width="0.8"><line x1="600" y1="18" x2="600" y2="25"/><line x1="600" y1="882" x2="600" y2="875"/><line x1="18" y1="450" x2="25" y2="450"/><line x1="1182" y1="450" x2="1175" y2="450"/></g><rect x="826" y="796" width="356" height="86" fill="#0F2344" stroke="#FFFFFF" stroke-width="1.1"/><g stroke="#FFFFFF" stroke-width="0.6"><line x1="826" y1="829" x2="1182" y2="829"/><line x1="826" y1="858" x2="1182" y2="858"/><line x1="944" y1="858" x2="944" y2="882"/><line x1="1062" y1="858" x2="1062" y2="882"/></g><g transform="translate(831 801) scale(0.23)"><rect width="100" height="100" fill="#0F2344"/><g fill="none" stroke="#fff"><rect x="6" y="6" width="88" height="88" stroke-width="3"/><rect x="12" y="12" width="76" height="76" stroke-width="1.2"/></g><g fill="#fff"><polygon points="36.5,24 39,24 23.5,74 21,74"/><polygon points="37,24 40,24 55,74 46,74"/><rect x="28" y="55" width="16" height="2.5"/><rect x="17" y="73.5" width="12" height="2.5"/><rect x="43" y="73.5" width="15" height="2.5"/><rect x="60" y="26" width="8" height="50"/><rect x="56" y="24" width="16" height="2.5"/><rect x="56" y="73.5" width="6" height="2.5"/><rect x="60" y="72" width="24" height="4"/><rect x="81.5" y="65" width="2.5" height="11"/></g></g><text x="862" y="812" font-size="11.5" font-weight="700" fill="#FFFFFF" letter-spacing="1.1">ALBANO LUZ ENGENHARIA</text><text x="862" y="823.5" font-size="6.8" fill="#A9B6CD" letter-spacing="0.9">PROJETO ESTRUTURAL · CÁLCULO E DETALHAMENTO</text><text x="833" y="838" font-size="6.2" fill="#A9B6CD" letter-spacing="1">DESENHO</text><text x="833" y="852" font-size="11" font-weight="700" fill="#FFFFFF">ISOMÉTRICA — AMPLIAÇÃO RESIDENCIAL</text><text x="833" y="874" font-size="9.5" font-weight="600" fill="#FFFFFF">SEM ESCALA</text><text x="951" y="874" font-size="9.5" font-weight="600" fill="#FFFFFF">FOLHA 02/05</text><text x="1069" y="874" font-size="9.5" font-weight="600" fill="#FFFFFF">REV. 00</text></svg>
