<svg xmlns="http://www.w3.org/2000/svg" width="1200" height="900" viewBox="0 0 1200 900" font-family="Inter, Arial, Helvetica, sans-serif"><style>text{stroke:none}.pw{fill:#0F2344}.pwl{fill:#B9BEC8}.jn{fill:#fff;stroke:#0F2344;stroke-width:.7}.jl{fill:none;stroke:#0F2344;stroke-width:.6}.pf{fill:none;stroke:#0F2344;stroke-width:1.3}.ar{fill:none;stroke:#0F2344;stroke-width:.6;stroke-dasharray:3 2}.vg{fill:none;stroke:#4A4A4A;stroke-width:.6;stroke-dasharray:5 3}.mb{fill:none;stroke:#8C929C;stroke-width:.75}.mbf{fill:#E9E9E6;stroke:#8C929C;stroke-width:.75}.pz{fill:none;stroke:#4A4A4A;stroke-width:.35;stroke-opacity:.35}.pn{fill:none;stroke:#8C929C;stroke-width:.7;stroke-dasharray:4 3}</style><rect width="1200" height="900" fill="#F4F4F2"/><g class="mb"><g transform="translate(275 200)"><rect x="0" y="0" width="65" height="32.5"/><rect x="20" y="37.5" width="25" height="22.5" rx="4"/><rect x="6" y="-30" width="22.5" height="21" rx="3"/><rect x="36" y="-30" width="22.5" height="21" rx="3"/></g><g transform="translate(405 165)"><rect x="0" y="0" width="32.5" height="95"/><rect x="4" y="3" width="24.5" height="15" rx="2.5"/></g><g transform="translate(262.5 310)"><rect x="0" y="0" width="27.5" height="22.5"/><ellipse cx="13.8" cy="12" rx="9" ry="6.5"/></g><g transform="translate(475 200)"><rect x="0" y="0" width="65" height="32.5"/><rect x="20" y="37.5" width="25" height="22.5" rx="4"/><rect x="6" y="-30" width="22.5" height="21" rx="3"/><rect x="36" y="-30" width="22.5" height="21" rx="3"/></g><g transform="translate(605 165)"><rect x="0" y="0" width="32.5" height="95"/><rect x="4" y="3" width="24.5" height="15" rx="2.5"/></g><g transform="translate(462.5 310)"><rect x="0" y="0" width="27.5" height="22.5"/><ellipse cx="13.8" cy="12" rx="9" ry="6.5"/></g><g transform="translate(675 200)"><rect x="0" y="0" width="65" height="32.5"/><rect x="20" y="37.5" width="25" height="22.5" rx="4"/><rect x="6" y="-30" width="22.5" height="21" rx="3"/><rect x="36" y="-30" width="22.5" height="21" rx="3"/></g><g transform="translate(805 165)"><rect x="0" y="0" width="32.5" height="95"/><rect x="4" y="3" width="24.5" height="15" rx="2.5"/></g><g transform="translate(810 310)"><rect x="0" y="0" width="27.5" height="22.5"/><ellipse cx="13.8" cy="12" rx="9" ry="6.5"/></g><g transform="translate(875 200)"><rect x="0" y="0" width="65" height="32.5"/><rect x="20" y="37.5" width="25" height="22.5" rx="4"/><rect x="6" y="-30" width="22.5" height="21" rx="3"/><rect x="36" y="-30" width="22.5" height="21" rx="3"/></g><g transform="translate(1005 165)"><rect x="0" y="0" width="32.5" height="95"/><rect x="4" y="3" width="24.5" height="15" rx="2.5"/></g><g transform="translate(1010 310)"><rect x="0" y="0" width="27.5" height="22.5"/><ellipse cx="13.8" cy="12" rx="9" ry="6.5"/></g><g transform="translate(270 590)"><rect x="0" y="0" width="32.5" height="95"/><rect x="4" y="3" width="24.5" height="15" rx="2.5"/></g><g transform="translate(445 495) rotate(90)"><rect x="0" y="0" width="100" height="30"/><rect x="30" y="5" width="37.5" height="20" rx="3"/><circle cx="48.8" cy="4" r="1.5"/></g><g transform="translate(730 450)"><rect x="0" y="0" width="110" height="30"/><rect x="80" y="30" width="30" height="50"/><rect x="38.5" y="40" width="25" height="22.5" rx="4"/></g><g transform="translate(475 645)"><rect x="0" y="0" width="24" height="24" rx="3"/><rect x="27.5" y="0" width="24" height="24" rx="3"/><rect x="55" y="0" width="24" height="24" rx="3"/><rect x="82.5" y="0" width="24" height="24" rx="3"/></g><g transform="translate(490 465) rotate(90)"><rect x="0" y="0" width="24" height="24" rx="3"/><rect x="27.5" y="0" width="24" height="24" rx="3"/><rect x="55" y="0" width="24" height="24" rx="3"/><rect x="82.5" y="0" width="24" height="24" rx="3"/></g><g transform="translate(860 440)"><rect x="0" y="0" width="27.5" height="22.5"/><ellipse cx="13.8" cy="12" rx="9" ry="6.5"/></g><g transform="translate(940 500) rotate(90)"><rect x="0" y="0" width="20" height="9"/><ellipse cx="10" cy="22" rx="8.5" ry="12.5"/></g><g transform="translate(960 440)"><rect x="0" y="0" width="27.5" height="22.5"/><ellipse cx="13.8" cy="12" rx="9" ry="6.5"/></g><g transform="translate(1040 500) rotate(90)"><rect x="0" y="0" width="20" height="9"/><ellipse cx="10" cy="22" rx="8.5" ry="12.5"/></g><g transform="translate(862.5 577.5)"><rect x="0" y="0" width="95" height="30"/><rect x="30" y="5" width="37.5" height="20" rx="3"/><circle cx="48.8" cy="4" r="1.5"/></g></g><path d="M245 145H310V155H245ZM390 145H510V155H390ZM590 145H710V155H590ZM790 145H910V155H790ZM990 145H1055V155H990ZM245 695H300V705H245ZM400 695H500V705H400ZM580 695H610V705H580ZM690 695H720V705H690ZM800 695H880V705H800ZM940 695H1055V705H940ZM245 145H255V520H245ZM245 600H255V705H245ZM1045 145H1055V610H1045ZM1045 660H1055V705H1045ZM246.3 346.3H390V353.8H246.3ZM435 346.3H590V353.8H435ZM635 346.3H665V353.8H635ZM710 346.3H865V353.8H710ZM910 346.3H1053.8V353.8H910ZM446.3 146.3H453.8V353.8H446.3ZM646.3 146.3H653.8V353.8H646.3ZM846.3 146.3H853.8V353.8H846.3ZM246.3 421.3H300V428.8H246.3ZM350 421.3H453.8V428.8H350ZM446.3 421.3H503.8V428.8H446.3ZM796.3 421.3H875V428.8H796.3ZM920 421.3H977.5V428.8H920ZM1022.5 421.3H1053.8V428.8H1022.5ZM446.3 421.3H453.8V703.8H446.3ZM846.3 421.3H853.8V605H846.3ZM846.3 645H853.8V703.8H846.3ZM946.3 421.3H953.8V568.8H946.3ZM846.3 561.3H1053.8V568.8H846.3ZM966.3 561.3H973.8V610H966.3ZM966.3 645H973.8V703.8H966.3Z" class="pw"/><path d="M310 145L390 145L390 155L310 155Z" class="jn"/><path d="M310 150L390 150M310 148.3L390 148.3" class="jl"/><path d="M510 145L590 145L590 155L510 155Z" class="jn"/><path d="M510 150L590 150M510 148.3L590 148.3" class="jl"/><path d="M710 145L790 145L790 155L710 155Z" class="jn"/><path d="M710 150L790 150M710 148.3L790 148.3" class="jl"/><path d="M910 145L990 145L990 155L910 155Z" class="jn"/><path d="M910 150L990 150M910 148.3L990 148.3" class="jl"/><path d="M300 695L400 695L400 705L300 705Z" class="jn"/><path d="M300 700L400 700M300 698.3L400 698.3" class="jl"/><path d="M500 695L580 695L580 705L500 705Z" class="jn"/><path d="M500 700L580 700M500 698.3L580 698.3" class="jl"/><path d="M610 695L610 655" class="pf"/><path d="M610 655L616.3 655.5L622.4 657L628.2 659.4L633.5 662.6L638.3 666.7L642.4 671.5L645.6 676.8L648 682.6L649.5 688.7L650 695" class="ar"/><path d="M690 695L690 655" class="pf"/><path d="M690 655L683.7 655.5L677.6 657L671.8 659.4L666.5 662.6L661.7 666.7L657.6 671.5L654.4 676.8L652 682.6L650.5 688.7L650 695" class="ar"/><path d="M720 695L800 695L800 705L720 705Z" class="jn"/><path d="M720 700L800 700M720 698.3L800 698.3" class="jl"/><path d="M880 695L940 695L940 705L880 705Z" class="jn"/><path d="M880 700L940 700M880 698.3L940 698.3" class="jl"/><path d="M245 520L245 600L255 600L255 520Z" class="jn"/><path d="M250 520L250 600M248.3 520L248.3 600" class="jl"/><path d="M1045 610L1045 660L1055 660L1055 610Z" class="jn"/><path d="M1050 610L1050 660M1048.3 610L1048.3 660" class="jl"/><path d="M435 346.3L435 301.3" class="pf"/><path d="M435 301.3L429.1 301.6L423.4 302.8L417.8 304.7L412.5 307.3L407.6 310.5L403.2 314.4L399.3 318.9L396 323.8L393.4 329L391.5 334.6L390.4 340.4L390 346.3" class="ar"/><path d="M635 346.3L635 301.3" class="pf"/><path d="M635 301.3L629.1 301.6L623.4 302.8L617.8 304.7L612.5 307.3L607.6 310.5L603.2 314.4L599.3 318.9L596 323.8L593.4 329L591.5 334.6L590.4 340.4L590 346.3" class="ar"/><path d="M665 346.3L665 301.3" class="pf"/><path d="M665 301.3L670.9 301.6L676.6 302.8L682.2 304.7L687.5 307.3L692.4 310.5L696.8 314.4L700.7 318.9L704 323.8L706.6 329L708.5 334.6L709.6 340.4L710 346.3" class="ar"/><path d="M865 346.3L865 301.3" class="pf"/><path d="M865 301.3L870.9 301.6L876.6 302.8L882.2 304.7L887.5 307.3L892.4 310.5L896.8 314.4L900.7 318.9L904 323.8L906.6 329L908.5 334.6L909.6 340.4L910 346.3" class="ar"/><path d="M300 428.8L300 478.8" class="pf"/><path d="M300 478.8L306.5 478.3L312.9 477L319.1 474.9L325 472.1L330.4 468.4L335.4 464.1L339.7 459.2L343.3 453.8L346.2 447.9L348.3 441.7L349.6 435.3L350 428.8" class="ar"/><path d="M875 428.8L875 473.8" class="pf"/><path d="M875 473.8L880.9 473.4L886.6 472.2L892.2 470.3L897.5 467.7L902.4 464.5L906.8 460.6L910.7 456.1L914 451.3L916.6 446L918.5 440.4L919.6 434.6L920 428.8" class="ar"/><path d="M1022.5 428.8L1022.5 473.8" class="pf"/><path d="M1022.5 473.8L1016.6 473.4L1010.9 472.2L1005.3 470.3L1000 467.7L995.1 464.5L990.7 460.6L986.8 456.1L983.5 451.3L980.9 446L979 440.4L977.9 434.6L977.5 428.8" class="ar"/><path d="M853.8 605L893.8 605" class="pf"/><path d="M893.8 605L893.4 610.2L892.4 615.4L890.7 620.3L888.4 625L885.5 629.4L882 633.3L878.1 636.7L873.8 639.6L869.1 642L864.1 643.6L859 644.7L853.8 645" class="ar"/><path d="M973.8 610L1008.8 610" class="pf"/><path d="M1008.8 610L1008.5 614.6L1007.6 619.1L1006.1 623.4L1004.1 627.5L1001.5 631.3L998.5 634.7L995.1 637.8L991.3 640.3L987.1 642.3L982.8 643.8L978.3 644.7L973.8 645" class="ar"/><circle cx="900" cy="495" r="37.5" class="pn"/><circle cx="1000" cy="495" r="37.5" class="pn"/><text x="350" y="267.5" font-size="10.5" font-weight="700" text-anchor="middle" fill="#0F2344" letter-spacing="0.4">CONSULTÓRIO 1</text><text x="350" y="280" font-size="8.5" text-anchor="middle" fill="#4A4A4A">A = 14,67 m²</text><text x="550" y="267.5" font-size="10.5" font-weight="700" text-anchor="middle" fill="#0F2344" letter-spacing="0.4">CONSULTÓRIO 2</text><text x="550" y="280" font-size="8.5" text-anchor="middle" fill="#4A4A4A">A = 14,67 m²</text><text x="750" y="267.5" font-size="10.5" font-weight="700" text-anchor="middle" fill="#0F2344" letter-spacing="0.4">CONSULTÓRIO 3</text><text x="750" y="280" font-size="8.5" text-anchor="middle" fill="#4A4A4A">A = 14,67 m²</text><text x="950" y="267.5" font-size="10.5" font-weight="700" text-anchor="middle" fill="#0F2344" letter-spacing="0.4">CONSULTÓRIO 4</text><text x="950" y="280" font-size="8.5" text-anchor="middle" fill="#4A4A4A">A = 14,67 m²</text><text x="750" y="397.5" font-size="9.5" font-weight="700" text-anchor="middle" fill="#0F2344" letter-spacing="0.4">CIRCULAÇÃO</text><text x="750" y="409" font-size="7.5" text-anchor="middle" fill="#4A4A4A">A = 21,05 m²</text><text x="350" y="555" font-size="10.5" font-weight="700" text-anchor="middle" fill="#0F2344" letter-spacing="0.4">PROCEDIMENTOS</text><text x="350" y="567.5" font-size="8.5" text-anchor="middle" fill="#4A4A4A">A = 20,41 m²</text><text x="580" y="565" font-size="11" font-weight="700" text-anchor="middle" fill="#0F2344" letter-spacing="0.4">RECEPÇÃO / ESPERA</text><text x="580" y="578" font-size="9" text-anchor="middle" fill="#4A4A4A">A = 41,73 m²</text><text x="900" y="535" font-size="9" font-weight="700" text-anchor="middle" fill="#0F2344" letter-spacing="0.4">SANIT. PNE</text><text x="900" y="546" font-size="7" text-anchor="middle" fill="#4A4A4A">A = 4,81 m²</text><text x="1000" y="535" font-size="9" font-weight="700" text-anchor="middle" fill="#0F2344" letter-spacing="0.4">SANIT. PNE</text><text x="1000" y="546" font-size="7" text-anchor="middle" fill="#4A4A4A">A = 4,81 m²</text><text x="910" y="660" font-size="9.5" font-weight="700" text-anchor="middle" fill="#0F2344" letter-spacing="0.4">COPA</text><text x="910" y="671.5" font-size="7.5" text-anchor="middle" fill="#4A4A4A">A = 5,64 m²</text><text x="1010" y="660" font-size="9.5" font-weight="700" text-anchor="middle" fill="#0F2344" letter-spacing="0.4">DML</text><text x="1010" y="671.5" font-size="7.5" text-anchor="middle" fill="#4A4A4A">A = 3,62 m²</text><g stroke="#4A4A4A" stroke-width="0.7"><line x1="245" y1="116" x2="1055" y2="116"/><line x1="246.8" y1="119.2" x2="253.2" y2="112.8" stroke-width="1.3"/><line x1="250" y1="137" x2="250" y2="111"/><line x1="446.8" y1="119.2" x2="453.2" y2="112.8" stroke-width="1.3"/><line x1="450" y1="137" x2="450" y2="111"/><line x1="646.8" y1="119.2" x2="653.2" y2="112.8" stroke-width="1.3"/><line x1="650" y1="137" x2="650" y2="111"/><line x1="846.8" y1="119.2" x2="853.2" y2="112.8" stroke-width="1.3"/><line x1="850" y1="137" x2="850" y2="111"/><line x1="946.8" y1="119.2" x2="953.2" y2="112.8" stroke-width="1.3"/><line x1="950" y1="137" x2="950" y2="111"/><line x1="1046.8" y1="119.2" x2="1053.2" y2="112.8" stroke-width="1.3"/><line x1="1050" y1="137" x2="1050" y2="111"/></g><text x="350" y="112" font-size="10.5" text-anchor="middle" fill="#4A4A4A" style="stroke:#F4F4F2;stroke-width:3px;paint-order:stroke;stroke-linejoin:round">4,00</text><text x="550" y="112" font-size="10.5" text-anchor="middle" fill="#4A4A4A" style="stroke:#F4F4F2;stroke-width:3px;paint-order:stroke;stroke-linejoin:round">4,00</text><text x="750" y="112" font-size="10.5" text-anchor="middle" fill="#4A4A4A" style="stroke:#F4F4F2;stroke-width:3px;paint-order:stroke;stroke-linejoin:round">4,00</text><text x="900" y="112" font-size="10.5" text-anchor="middle" fill="#4A4A4A" style="stroke:#F4F4F2;stroke-width:3px;paint-order:stroke;stroke-linejoin:round">2,00</text><text x="1000" y="112" font-size="10.5" text-anchor="middle" fill="#4A4A4A" style="stroke:#F4F4F2;stroke-width:3px;paint-order:stroke;stroke-linejoin:round">2,00</text><g stroke="#4A4A4A" stroke-width="0.7"><line x1="245" y1="90" x2="1055" y2="90"/><line x1="246.8" y1="93.2" x2="253.2" y2="86.8" stroke-width="1.3"/><line x1="250" y1="85" x2="250" y2="95"/><line x1="1046.8" y1="93.2" x2="1053.2" y2="86.8" stroke-width="1.3"/><line x1="1050" y1="85" x2="1050" y2="95"/></g><text x="650" y="86" font-size="10.5" text-anchor="middle" fill="#4A4A4A" style="stroke:#F4F4F2;stroke-width:3px;paint-order:stroke;stroke-linejoin:round">16,00</text><g stroke="#4A4A4A" stroke-width="0.7"><line x1="216" y1="145" x2="216" y2="705"/><line x1="212.8" y1="153.2" x2="219.2" y2="146.8" stroke-width="1.3"/><line x1="237" y1="150" x2="211" y2="150"/><line x1="212.8" y1="353.2" x2="219.2" y2="346.8" stroke-width="1.3"/><line x1="237" y1="350" x2="211" y2="350"/><line x1="212.8" y1="428.2" x2="219.2" y2="421.8" stroke-width="1.3"/><line x1="237" y1="425" x2="211" y2="425"/><line x1="212.8" y1="568.2" x2="219.2" y2="561.8" stroke-width="1.3"/><line x1="237" y1="565" x2="211" y2="565"/><line x1="212.8" y1="703.2" x2="219.2" y2="696.8" stroke-width="1.3"/><line x1="237" y1="700" x2="211" y2="700"/></g><text x="212" y="250" font-size="10.5" text-anchor="middle" fill="#4A4A4A" style="stroke:#F4F4F2;stroke-width:3px;paint-order:stroke;stroke-linejoin:round" transform="rotate(-90 212 250)">4,00</text><text x="212" y="387.5" font-size="10.5" text-anchor="middle" fill="#4A4A4A" style="stroke:#F4F4F2;stroke-width:3px;paint-order:stroke;stroke-linejoin:round" transform="rotate(-90 212 387.5)">1,50</text><text x="212" y="495" font-size="10.5" text-anchor="middle" fill="#4A4A4A" style="stroke:#F4F4F2;stroke-width:3px;paint-order:stroke;stroke-linejoin:round" transform="rotate(-90 212 495)">2,80</text><text x="212" y="632.5" font-size="10.5" text-anchor="middle" fill="#4A4A4A" style="stroke:#F4F4F2;stroke-width:3px;paint-order:stroke;stroke-linejoin:round" transform="rotate(-90 212 632.5)">2,70</text><g stroke="#4A4A4A" stroke-width="0.7"><line x1="190" y1="145" x2="190" y2="705"/><line x1="186.8" y1="153.2" x2="193.2" y2="146.8" stroke-width="1.3"/><line x1="185" y1="150" x2="195" y2="150"/><line x1="186.8" y1="703.2" x2="193.2" y2="696.8" stroke-width="1.3"/><line x1="185" y1="700" x2="195" y2="700"/></g><text x="186" y="425" font-size="10.5" text-anchor="middle" fill="#4A4A4A" style="stroke:#F4F4F2;stroke-width:3px;paint-order:stroke;stroke-linejoin:round" transform="rotate(-90 186 425)">11,00</text><circle cx="695" cy="630" r="6" fill="#fff" stroke="#0F2344" stroke-width="0.8"/><path d="M695 630L701 630A6 6 0 0 0 695 624ZM695 630L689 630A6 6 0 0 0 695 636Z" fill="#0F2344"/><text x="705" y="633.5" font-size="9" font-weight="600" fill="#0F2344">+0,15</text><g stroke="#0F2344" stroke-width="0.9" fill="none"><circle cx="1110" cy="110" r="22"/><polygon points="1110,91 1117,122.1 1110,115.5" fill="#0F2344"/><polygon points="1110,91 1103,122.1 1110,115.5"/><text x="1110" y="83" font-size="11" font-weight="700" text-anchor="middle" fill="#0F2344">N</text></g><text x="60" y="822" font-size="14" font-weight="700" fill="#0F2344" letter-spacing="0.4">PLANTA BAIXA — TÉRREO</text><line x1="60" y1="828" x2="263.1" y2="828" stroke="#0F2344" stroke-width="1.6"/><line x1="60" y1="831.5" x2="263.1" y2="831.5" stroke="#0F2344" stroke-width="0.6"/><text x="263.1" y="845" font-size="9.5" text-anchor="end" fill="#4A4A4A" letter-spacing="0.4">ESC. 1:100</text><rect x="18" y="18" width="1164" height="864" fill="none" stroke="#0F2344" stroke-width="1.1"/><g stroke="#0F2344" stroke-width="0.8"><line x1="600" y1="18" x2="600" y2="25"/><line x1="600" y1="882" x2="600" y2="875"/><line x1="18" y1="450" x2="25" y2="450"/><line x1="1182" y1="450" x2="1175" y2="450"/></g><rect x="826" y="796" width="356" height="86" fill="#F4F4F2" stroke="#0F2344" stroke-width="1.1"/><g stroke="#0F2344" stroke-width="0.6"><line x1="826" y1="829" x2="1182" y2="829"/><line x1="826" y1="858" x2="1182" y2="858"/><line x1="944" y1="858" x2="944" y2="882"/><line x1="1062" y1="858" x2="1062" y2="882"/></g><g transform="translate(831 801) scale(0.23)"><rect width="100" height="100" fill="#0F2344"/><g fill="none" stroke="#fff"><rect x="6" y="6" width="88" height="88" stroke-width="3"/><rect x="12" y="12" width="76" height="76" stroke-width="1.2"/></g><g fill="#fff"><polygon points="36.5,24 39,24 23.5,74 21,74"/><polygon points="37,24 40,24 55,74 46,74"/><rect x="28" y="55" width="16" height="2.5"/><rect x="17" y="73.5" width="12" height="2.5"/><rect x="43" y="73.5" width="15" height="2.5"/><rect x="60" y="26" width="8" height="50"/><rect x="56" y="24" width="16" height="2.5"/><rect x="56" y="73.5" width="6" height="2.5"/><rect x="60" y="72" width="24" height="4"/><rect x="81.5" y="65" width="2.5" height="11"/></g></g><text x="862" y="812" font-size="11.5" font-weight="700" fill="#0F2344" letter-spacing="1.1">ALBANO LUZ ENGENHARIA</text><text x="862" y="823.5" font-size="6.8" fill="#4A4A4A" letter-spacing="0.9">PROJETO ESTRUTURAL · CÁLCULO E DETALHAMENTO</text><text x="833" y="838" font-size="6.2" fill="#4A4A4A" letter-spacing="1">DESENHO</text><text x="833" y="852" font-size="11" font-weight="700" fill="#0F2344">PLANTA BAIXA — CLÍNICA</text><text x="833" y="874" font-size="9.5" font-weight="600" fill="#0F2344">ESC. 1:100</text><text x="951" y="874" font-size="9.5" font-weight="600" fill="#0F2344">FOLHA 02/08</text><text x="1069" y="874" font-size="9.5" font-weight="600" fill="#0F2344">REV. 00</text></svg>
